<svg width="37" height="36" viewBox="0 0 37 36" fill="none" xmlns="http://www.w3.org/2000/svg">
<path d="M27.4523 13.9647V22.8556C27.4523 23.7954 27.4523 24.2653 27.2781 24.6765C27.2207 24.8119 27.15 24.9411 27.0668 25.0623C26.8142 25.4306 26.4184 25.6838 25.6266 26.19L20.5578 29.4311C19.6401 30.0179 19.1813 30.3113 18.6754 30.3691C18.5095 30.3881 18.342 30.3881 18.1761 30.3691C17.6702 30.3113 17.2114 30.0179 16.2936 29.4311L11.2249 26.19C10.4331 25.6838 10.0372 25.4306 9.78465 25.0623C9.70152 24.9411 9.63075 24.8119 9.57341 24.6765C9.39919 24.2653 9.39919 23.7954 9.39919 22.8556V13.9647M31.6184 11.9478L20.0807 6.63679C19.3582 6.30424 18.997 6.13797 18.6152 6.10495C18.4891 6.09404 18.3623 6.09404 18.2363 6.10495C17.8545 6.13797 17.4932 6.30424 16.7708 6.63679L5.23309 11.9478L16.7011 17.4998C17.4527 17.8636 17.8285 18.0456 18.2277 18.0817C18.3595 18.0936 18.492 18.0936 18.6238 18.0817C19.023 18.0456 19.3988 17.8636 20.1503 17.4998L31.6184 11.9478ZM31.6184 11.9478V25.5174C31.6184 26.3787 31.6184 26.8094 31.4689 27.1939C31.4195 27.3207 31.3586 27.4426 31.2867 27.5581C31.0689 27.9084 30.7243 28.1668 30.0353 28.6836L28.3202 29.9699" stroke="#1C1D1D" stroke-width="2.19877" stroke-linecap="round" stroke-linejoin="round"/>
</svg>
