<svg width="22" height="28" viewBox="0 0 22 28" fill="none" xmlns="http://www.w3.org/2000/svg">
<path d="M4.24401 0.302063H13.3244C13.7793 0.30216 14.2156 0.482968 14.5373 0.804716L20.8968 7.16423C21.2185 7.48588 21.3993 7.92216 21.3994 8.37711V24.3196C21.3994 25.2296 21.0379 26.1023 20.3945 26.7458C19.751 27.3892 18.8783 27.7507 17.9683 27.7507H4.24401C3.33403 27.7507 2.46132 27.3892 1.81787 26.7458C1.17442 26.1023 0.812927 25.2296 0.812927 24.3196V3.73314C0.812927 2.82317 1.17442 1.95046 1.81787 1.307C2.46132 0.663551 3.33403 0.302063 4.24401 0.302063V0.302063ZM13.6795 2.87537V6.30646C13.6795 6.76145 13.8602 7.1978 14.182 7.51953C14.5037 7.84125 14.94 8.022 15.395 8.022H18.8261L13.6795 2.87537Z" fill="#1294F2"/>
<path d="M6.83702 18.2391C6.68262 18.2391 6.55567 18.1945 6.45617 18.1053C6.3601 18.0127 6.31207 17.8994 6.31207 17.7656C6.31207 17.6284 6.3601 17.5134 6.45617 17.4208C6.55567 17.3282 6.68262 17.2818 6.83702 17.2818C6.98799 17.2818 7.11151 17.3282 7.20758 17.4208C7.30708 17.5134 7.35683 17.6284 7.35683 17.7656C7.35683 17.8994 7.30708 18.0127 7.20758 18.1053C7.11151 18.1945 6.98799 18.2391 6.83702 18.2391ZM9.57619 16.0569H9.1027V18.1979H8.22263V16.0569H7.90354V15.3261H8.22263V15.2438C8.22263 14.8904 8.32385 14.6227 8.52628 14.4409C8.72871 14.2556 9.0255 14.163 9.41665 14.163C9.48184 14.163 9.52987 14.1647 9.56075 14.1681V14.9144C9.39263 14.9041 9.27426 14.9281 9.20563 14.9864C9.13701 15.0448 9.1027 15.1494 9.1027 15.3004V15.3261H9.57619V16.0569ZM10.6897 15.0276C10.5353 15.0276 10.4083 14.983 10.3088 14.8938C10.2128 14.8012 10.1647 14.6879 10.1647 14.5541C10.1647 14.4169 10.2128 14.3037 10.3088 14.2145C10.4083 14.1218 10.5353 14.0755 10.6897 14.0755C10.8406 14.0755 10.9642 14.1218 11.0602 14.2145C11.1597 14.3037 11.2095 14.4169 11.2095 14.5541C11.2095 14.6879 11.1597 14.8012 11.0602 14.8938C10.9642 14.983 10.8406 15.0276 10.6897 15.0276ZM11.1271 15.3261V18.1979H10.2471V15.3261H11.1271ZM13.1133 15.2849C13.3158 15.2849 13.4925 15.3261 13.6434 15.4085C13.7978 15.4908 13.9162 15.5989 13.9985 15.7327V15.3261H14.8786V18.1928C14.8786 18.457 14.8254 18.6954 14.7191 18.9082C14.6161 19.1243 14.4566 19.2959 14.2404 19.4228C14.0277 19.5498 13.7618 19.6133 13.4427 19.6133C13.0173 19.6133 12.6724 19.512 12.4082 19.3096C12.144 19.1106 11.9931 18.8395 11.9553 18.4964H12.8251C12.8526 18.6062 12.9178 18.692 13.0207 18.7538C13.1236 18.819 13.2506 18.8516 13.4015 18.8516C13.5834 18.8516 13.7275 18.7984 13.8339 18.692C13.9437 18.5891 13.9985 18.4227 13.9985 18.1928V17.7862C13.9128 17.92 13.7944 18.0298 13.6434 18.1156C13.4925 18.1979 13.3158 18.2391 13.1133 18.2391C12.8766 18.2391 12.6621 18.1791 12.47 18.059C12.2779 17.9355 12.1252 17.7622 12.012 17.5392C11.9022 17.3127 11.8473 17.052 11.8473 16.7569C11.8473 16.4618 11.9022 16.2028 12.012 15.9797C12.1252 15.7567 12.2779 15.5852 12.47 15.4651C12.6621 15.345 12.8766 15.2849 13.1133 15.2849ZM13.9985 16.762C13.9985 16.5424 13.9368 16.3692 13.8133 16.2422C13.6932 16.1153 13.5456 16.0518 13.3707 16.0518C13.1957 16.0518 13.0464 16.1153 12.9229 16.2422C12.8028 16.3657 12.7428 16.5373 12.7428 16.7569C12.7428 16.9765 12.8028 17.1515 12.9229 17.2818C13.0464 17.4088 13.1957 17.4723 13.3707 17.4723C13.5456 17.4723 13.6932 17.4088 13.8133 17.2818C13.9368 17.1549 13.9985 16.9816 13.9985 16.762Z" fill="white"/>
</svg>
