<svg width="21" height="28" viewBox="0 0 21 28" fill="none" xmlns="http://www.w3.org/2000/svg">
<path d="M3.75872 0.249329H12.8391C13.294 0.249426 13.7303 0.430234 14.052 0.751982L20.4115 7.11149C20.7332 7.43314 20.914 7.86943 20.9141 8.32438V24.2669C20.9141 25.1769 20.5526 26.0496 19.9092 26.693C19.2657 27.3365 18.393 27.698 17.483 27.698H3.75872C2.84874 27.698 1.97603 27.3365 1.33258 26.693C0.689124 26.0496 0.327637 25.1769 0.327637 24.2669V3.68041C0.327637 2.77043 0.689124 1.89772 1.33258 1.25427C1.97603 0.610817 2.84874 0.249329 3.75872 0.249329V0.249329ZM13.1942 2.82264V6.25372C13.1942 6.70871 13.3749 7.14507 13.6967 7.46679C14.0184 7.78852 14.4547 7.96926 14.9097 7.96926H18.3408L13.1942 2.82264Z" fill="#F1351B"/>
<path d="M5.17577 18.1863C5.02137 18.1863 4.89442 18.1417 4.79492 18.0525C4.69885 17.9599 4.65081 17.8467 4.65081 17.7129C4.65081 17.5756 4.69885 17.4607 4.79492 17.368C4.89442 17.2754 5.02137 17.2291 5.17577 17.2291C5.32673 17.2291 5.45025 17.2754 5.54632 17.368C5.64583 17.4607 5.69558 17.5756 5.69558 17.7129C5.69558 17.8467 5.64583 17.9599 5.54632 18.0525C5.45025 18.1417 5.32673 18.1863 5.17577 18.1863ZM9.22733 15.6954C9.22733 15.9047 9.17929 16.0968 9.08322 16.2718C8.98715 16.4434 8.83961 16.5823 8.64061 16.6887C8.44161 16.795 8.19457 16.8482 7.8995 16.8482H7.35395V18.1452H6.47388V14.5322H7.8995C8.18771 14.5322 8.43131 14.582 8.63032 14.6815C8.82932 14.781 8.97857 14.9182 9.07807 15.0932C9.17757 15.2682 9.22733 15.4689 9.22733 15.6954ZM7.83259 16.1483C8.00071 16.1483 8.12595 16.1088 8.20829 16.0299C8.29064 15.951 8.33181 15.8395 8.33181 15.6954C8.33181 15.5513 8.29064 15.4398 8.20829 15.3608C8.12595 15.2819 8.00071 15.2425 7.83259 15.2425H7.35395V16.1483H7.83259ZM11.2964 14.5322C11.6772 14.5322 12.0101 14.6077 12.2948 14.7587C12.5796 14.9097 12.7992 15.1224 12.9536 15.3969C13.1114 15.6679 13.1903 15.9819 13.1903 16.3387C13.1903 16.6921 13.1114 17.0061 12.9536 17.2805C12.7992 17.555 12.5779 17.7678 12.2897 17.9187C12.0049 18.0697 11.6738 18.1452 11.2964 18.1452H9.94283V14.5322H11.2964ZM11.2398 17.3835C11.5726 17.3835 11.8316 17.2925 12.0169 17.1107C12.2022 16.9289 12.2948 16.6715 12.2948 16.3387C12.2948 16.0059 12.2022 15.7468 12.0169 15.5616C11.8316 15.3763 11.5726 15.2836 11.2398 15.2836H10.8229V17.3835H11.2398ZM16.2915 14.5322V15.2373H14.8196V15.999H15.921V16.6835H14.8196V18.1452H13.9395V14.5322H16.2915Z" fill="white"/>
</svg>
