<svg width="56" height="56" viewBox="0 0 56 56" fill="none" xmlns="http://www.w3.org/2000/svg">
<rect x="0.191223" y="0.749939" width="55.1063" height="55.1063" rx="4.98149" fill="#1C1D1D" fill-opacity="0.05"/>
<path d="M27.7444 15.1104H23.3469C20.9182 15.1104 18.9493 17.0793 18.9493 19.508C18.9493 21.9367 20.9182 23.9055 23.3469 23.9055M27.7444 15.1104H32.142C34.5707 15.1104 36.5395 17.0793 36.5395 19.508C36.5395 21.9367 34.5707 23.9055 32.142 23.9055H27.7444M27.7444 15.1104V23.9055M27.7444 23.9055H23.3469M27.7444 23.9055V32.7006M23.3469 23.9055C20.9182 23.9055 18.9493 25.8744 18.9493 28.3031C18.9493 30.7318 20.9182 32.7006 23.3469 32.7006M27.7444 32.7006H23.3469M27.7444 32.7006V37.0982C27.7444 39.5269 25.7756 41.4957 23.3469 41.4957C20.9182 41.4957 18.9493 39.5269 18.9493 37.0982C18.9493 34.6695 20.9182 32.7006 23.3469 32.7006M36.5395 28.4863C36.5395 30.8138 34.6527 32.7006 32.3252 32.7006C29.9977 32.7006 28.1109 30.8138 28.1109 28.4863C28.1109 26.1588 29.9977 24.272 32.3252 24.272C34.6527 24.272 36.5395 26.1588 36.5395 28.4863Z" stroke="#1C1D1D" stroke-width="2.19877"/>
</svg>
