<svg width="13" height="13" viewBox="0 0 13 13" fill="none" xmlns="http://www.w3.org/2000/svg">
<path d="M0.362969 10.9976C0.233978 10.8382 0.167586 10.6903 0.163792 10.5537C0.163792 10.4209 0.2207 10.3128 0.334516 10.2293C0.43695 10.1535 0.545075 10.1136 0.65889 10.1098C0.7765 10.106 0.903594 10.0965 1.04017 10.0814C1.17675 10.0662 1.32282 9.9998 1.47836 9.88219C1.61115 9.78355 1.7022 9.65835 1.75152 9.5066C1.80084 9.35105 1.84447 9.18412 1.88241 9.00581C1.92035 8.8237 1.98674 8.6397 2.08159 8.4538C2.17643 8.26411 2.33767 8.0839 2.5653 7.91318C2.84984 7.69314 3.16853 7.57363 3.52135 7.55466C3.87418 7.5319 4.22132 7.60208 4.56277 7.76522C4.90422 7.92456 5.19824 8.16926 5.44484 8.49933C5.72179 8.86354 5.88303 9.24482 5.92856 9.64318C5.97788 10.0377 5.91718 10.419 5.74645 10.787C5.57573 11.155 5.29688 11.4832 4.90991 11.7715C4.57225 12.0219 4.19476 12.187 3.77744 12.2666C3.36012 12.3501 2.9371 12.3539 2.5084 12.278C2.08348 12.2059 1.68323 12.0599 1.30764 11.8398C0.932048 11.6198 0.617158 11.339 0.362969 10.9976ZM5.75214 7.66848C5.53589 7.44843 5.29498 7.26443 5.02941 7.11647C4.76384 6.96851 4.50965 6.87177 4.26685 6.82624C4.30479 6.61378 4.37308 6.41271 4.47172 6.22302C4.57415 6.03332 4.71642 5.84553 4.89852 5.65963C4.92508 5.62928 4.95354 5.59893 4.98389 5.56858C5.01424 5.53823 5.04649 5.50787 5.08063 5.47752C5.43725 5.53823 5.77491 5.65394 6.09359 5.82466C6.41607 5.99159 6.7044 6.20405 6.95859 6.46203C7.21657 6.72001 7.43092 7.01024 7.60165 7.33272C7.77616 7.6514 7.88998 7.99095 7.94309 8.35137C7.91654 8.38172 7.88808 8.41207 7.85773 8.44242C7.82738 8.47277 7.79703 8.50123 7.76668 8.52778C7.58458 8.7061 7.40057 8.84647 7.21467 8.9489C7.02878 9.05134 6.82391 9.12152 6.60007 9.15946C6.55834 8.92045 6.46159 8.66816 6.30984 8.40259C6.16188 8.13322 5.97598 7.88852 5.75214 7.66848ZM11.1641 0.754172C11.3614 0.610006 11.5605 0.536026 11.7616 0.532232C11.9627 0.528438 12.1505 0.577758 12.325 0.680192C12.4995 0.782626 12.6361 0.919205 12.7347 1.08993C12.8372 1.26065 12.8884 1.45034 12.8884 1.65901C12.8884 1.86388 12.8182 2.06685 12.6778 2.26792C12.6399 2.31724 12.5545 2.43864 12.4217 2.63213C12.289 2.82182 12.1182 3.06463 11.9096 3.36055C11.7009 3.65647 11.4638 3.98464 11.1982 4.34506C10.9364 4.70547 10.6576 5.07917 10.3617 5.46614C10.0696 5.84932 9.77173 6.2306 9.46822 6.60999C9.16851 6.98938 8.87259 7.3422 8.58046 7.66848C8.36042 6.99317 8.0019 6.40892 7.5049 5.91571C7.0117 5.42251 6.42935 5.06589 5.75783 4.84585C6.0879 4.55751 6.44073 4.26159 6.81632 3.95808C7.1957 3.65458 7.57888 3.35676 7.96586 3.06463C8.35662 2.76871 8.73222 2.48986 9.09263 2.22809C9.45305 1.96631 9.77932 1.73109 10.0714 1.52243C10.3636 1.31377 10.6064 1.14304 10.7999 1.01026C10.9934 0.873679 11.1148 0.788317 11.1641 0.754172Z" fill="black"/>
</svg>
