<svg width="316" height="214" viewBox="0 0 316 214" fill="none" xmlns="http://www.w3.org/2000/svg">
<rect x="1.2947" y="0.9898" width="314.102" height="211.723" rx="8.00926" stroke="#E5E7E7" stroke-width="0.696458"/>
<path d="M45.5197 87.6988H303.209" stroke="#E9E9E9" stroke-width="1.04469" stroke-linecap="round" stroke-dasharray="6.27 6.96"/>
<path d="M45.5197 118.343H303.209" stroke="#E9E9E9" stroke-width="1.04469" stroke-linecap="round" stroke-dasharray="6.27 6.96"/>
<path d="M45.5197 148.987H303.209" stroke="#E9E9E9" stroke-width="1.04469" stroke-linecap="round" stroke-dasharray="6.27 6.96"/>
<path d="M45.5197 179.631H303.209" stroke="#E9E9E9" stroke-width="1.04469" stroke-linecap="round" stroke-dasharray="6.27 6.96"/>
<path d="M14.6791 60.263C14.2694 60.263 13.9074 60.1904 13.5932 60.0452C13.281 59.898 13.0374 59.6962 12.8624 59.4396C12.6874 59.1811 12.6009 58.8868 12.6028 58.5566C12.6009 58.2981 12.6516 58.0595 12.755 57.8407C12.8584 57.62 12.9996 57.436 13.1786 57.2888C13.3595 57.1397 13.5614 57.0452 13.7841 57.0054V56.9697C13.4918 56.8941 13.2591 56.73 13.0861 56.4774C12.9131 56.2229 12.8276 55.9335 12.8296 55.6094C12.8276 55.2991 12.9061 55.0217 13.0652 54.7771C13.2243 54.5325 13.4431 54.3396 13.7215 54.1984C14.0019 54.0572 14.3211 53.9866 14.6791 53.9866C15.0331 53.9866 15.3493 54.0572 15.6277 54.1984C15.9061 54.3396 16.1249 54.5325 16.284 54.7771C16.445 55.0217 16.5266 55.2991 16.5286 55.6094C16.5266 55.9335 16.4381 56.2229 16.2631 56.4774C16.0901 56.73 15.8604 56.8941 15.574 56.9697V57.0054C15.7947 57.0452 15.9936 57.1397 16.1706 57.2888C16.3476 57.436 16.4888 57.62 16.5942 57.8407C16.6996 58.0595 16.7533 58.2981 16.7553 58.5566C16.7533 58.8868 16.6638 59.1811 16.4868 59.4396C16.3118 59.6962 16.0682 59.898 15.756 60.0452C15.4457 60.1904 15.0868 60.263 14.6791 60.263ZM14.6791 59.6067C14.9555 59.6067 15.1941 59.5619 15.395 59.4725C15.5959 59.383 15.751 59.2567 15.8604 59.0936C15.9697 58.9305 16.0254 58.7396 16.0274 58.5209C16.0254 58.2902 15.9658 58.0863 15.8484 57.9093C15.7311 57.7323 15.571 57.5931 15.3682 57.4917C15.1673 57.3903 14.9376 57.3396 14.6791 57.3396C14.4185 57.3396 14.1859 57.3903 13.981 57.4917C13.7782 57.5931 13.6181 57.7323 13.5007 57.9093C13.3854 58.0863 13.3287 58.2902 13.3307 58.5209C13.3287 58.7396 13.3814 58.9305 13.4888 59.0936C13.5982 59.2567 13.7543 59.383 13.9572 59.4725C14.16 59.5619 14.4006 59.6067 14.6791 59.6067ZM14.6791 56.7071C14.8978 56.7071 15.0917 56.6634 15.2608 56.5759C15.4318 56.4884 15.566 56.3661 15.6635 56.209C15.7609 56.0519 15.8106 55.8679 15.8126 55.6571C15.8106 55.4503 15.7619 55.2703 15.6665 55.1172C15.571 54.962 15.4388 54.8427 15.2697 54.7592C15.1007 54.6737 14.9038 54.6309 14.6791 54.6309C14.4504 54.6309 14.2505 54.6737 14.0795 54.7592C13.9084 54.8427 13.7762 54.962 13.6827 55.1172C13.5892 55.2703 13.5435 55.4503 13.5455 55.6571C13.5435 55.8679 13.5902 56.0519 13.6857 56.209C13.7831 56.3661 13.9174 56.4884 14.0884 56.5759C14.2594 56.6634 14.4563 56.7071 14.6791 56.7071ZM19.8912 60.263C19.4418 60.263 19.059 60.1407 18.7428 59.8961C18.4266 59.6494 18.1849 59.2925 18.0179 58.8251C17.8508 58.3558 17.7673 57.789 17.7673 57.1248C17.7673 56.4645 17.8508 55.9007 18.0179 55.4334C18.1869 54.964 18.4295 54.6061 18.7457 54.3595C19.0639 54.1109 19.4458 53.9866 19.8912 53.9866C20.3367 53.9866 20.7176 54.1109 21.0338 54.3595C21.352 54.6061 21.5946 54.964 21.7616 55.4334C21.9307 55.9007 22.0152 56.4645 22.0152 57.1248C22.0152 57.789 21.9317 58.3558 21.7646 58.8251C21.5976 59.2925 21.3559 59.6494 21.0397 59.8961C20.7235 60.1407 20.3407 60.263 19.8912 60.263ZM19.8912 59.6067C20.3367 59.6067 20.6828 59.3919 20.9294 58.9623C21.176 58.5328 21.2993 57.9203 21.2993 57.1248C21.2993 56.5958 21.2426 56.1453 21.1292 55.7734C21.0179 55.4015 20.8568 55.1182 20.646 54.9233C20.4372 54.7284 20.1856 54.6309 19.8912 54.6309C19.4498 54.6309 19.1047 54.8487 18.8561 55.2842C18.6075 55.7178 18.4832 56.3313 18.4832 57.1248C18.4832 57.6538 18.5389 58.1032 18.6503 58.4731C18.7617 58.843 18.9217 59.1244 19.1306 59.3173C19.3414 59.5102 19.5949 59.6067 19.8912 59.6067ZM25.6188 60.1794V54.0701H26.3586V56.7907H29.6161V54.0701H30.3559V60.1794H29.6161V57.4469H26.3586V60.1794H25.6188ZM31.7415 60.1794V55.5974H32.4217V56.2895H32.4694C32.5529 56.0628 32.7041 55.8788 32.9228 55.7376C33.1416 55.5964 33.3882 55.5258 33.6626 55.5258C33.7143 55.5258 33.779 55.5268 33.8565 55.5288C33.9341 55.5308 33.9928 55.5338 34.0325 55.5378V56.2537C34.0087 56.2477 33.954 56.2388 33.8685 56.2269C33.7849 56.2129 33.6964 56.206 33.603 56.206C33.3802 56.206 33.1814 56.2527 33.0064 56.3462C32.8333 56.4377 32.6961 56.5649 32.5947 56.728C32.4953 56.8891 32.4455 57.0731 32.4455 57.2799V60.1794H31.7415Z" fill="#85878D"/>
<path d="M14.7507 91.6037C14.5001 91.5997 14.2495 91.552 13.9989 91.4605C13.7483 91.369 13.5196 91.2149 13.3128 90.9981C13.106 90.7793 12.9399 90.484 12.8146 90.1121C12.6894 89.7382 12.6267 89.2689 12.6267 88.7041C12.6267 88.1632 12.6774 87.6839 12.7788 87.2663C12.8803 86.8467 13.0274 86.4937 13.2203 86.2073C13.4132 85.9189 13.6459 85.7002 13.9184 85.551C14.1928 85.4018 14.5021 85.3273 14.8461 85.3273C15.1882 85.3273 15.4925 85.3959 15.7589 85.5331C16.0274 85.6683 16.2462 85.8573 16.4152 86.0999C16.5843 86.3425 16.6936 86.6219 16.7434 86.9381H16.0155C15.9479 86.6637 15.8166 86.436 15.6217 86.255C15.4268 86.074 15.1683 85.9835 14.8461 85.9835C14.3728 85.9835 13.9999 86.1894 13.7275 86.601C13.457 87.0127 13.3208 87.5904 13.3188 88.3342H13.3665C13.4779 88.1652 13.6101 88.021 13.7633 87.9017C13.9184 87.7804 14.0894 87.6869 14.2763 87.6213C14.4633 87.5556 14.6612 87.5228 14.87 87.5228C15.22 87.5228 15.5402 87.6103 15.8305 87.7853C16.1209 87.9583 16.3536 88.198 16.5286 88.5042C16.7036 88.8085 16.7911 89.1575 16.7911 89.5513C16.7911 89.9292 16.7066 90.2752 16.5375 90.5894C16.3685 90.9016 16.1308 91.1502 15.8246 91.3352C15.5203 91.5182 15.1623 91.6076 14.7507 91.6037ZM14.7507 90.9474C15.0012 90.9474 15.226 90.8847 15.4248 90.7595C15.6257 90.6342 15.7838 90.4661 15.8991 90.2553C16.0165 90.0445 16.0751 89.8098 16.0751 89.5513C16.0751 89.2987 16.0185 89.069 15.9051 88.8622C15.7937 88.6534 15.6396 88.4873 15.4427 88.364C15.2478 88.2407 15.0251 88.1791 14.7745 88.1791C14.5856 88.1791 14.4096 88.2169 14.2465 88.2925C14.0834 88.366 13.9403 88.4675 13.817 88.5967C13.6956 88.726 13.6002 88.8742 13.5306 89.0412C13.461 89.2063 13.4262 89.3803 13.4262 89.5632C13.4262 89.8059 13.4828 90.0326 13.5962 90.2434C13.7116 90.4542 13.8687 90.6242 14.0675 90.7535C14.2684 90.8828 14.4961 90.9474 14.7507 90.9474ZM19.9569 91.6037C19.5074 91.6037 19.1246 91.4814 18.8084 91.2367C18.4922 90.9901 18.2506 90.6332 18.0835 90.1658C17.9165 89.6965 17.8329 89.1297 17.8329 88.4655C17.8329 87.8052 17.9165 87.2414 18.0835 86.7741C18.2525 86.3047 18.4952 85.9468 18.8114 85.7002C19.1296 85.4516 19.5114 85.3273 19.9569 85.3273C20.4023 85.3273 20.7832 85.4516 21.0994 85.7002C21.4176 85.9468 21.6602 86.3047 21.8273 86.7741C21.9963 87.2414 22.0808 87.8052 22.0808 88.4655C22.0808 89.1297 21.9973 89.6965 21.8302 90.1658C21.6632 90.6332 21.4216 90.9901 21.1054 91.2367C20.7892 91.4814 20.4063 91.6037 19.9569 91.6037ZM19.9569 90.9474C20.4023 90.9474 20.7484 90.7326 20.995 90.303C21.2416 89.8735 21.3649 89.261 21.3649 88.4655C21.3649 87.9365 21.3082 87.486 21.1949 87.1141C21.0835 86.7422 20.9224 86.4589 20.7116 86.264C20.5028 86.0691 20.2512 85.9716 19.9569 85.9716C19.5154 85.9716 19.1703 86.1894 18.9217 86.6249C18.6732 87.0584 18.5489 87.672 18.5489 88.4655C18.5489 88.9945 18.6045 89.4439 18.7159 89.8138C18.8273 90.1837 18.9874 90.4651 19.1962 90.658C19.407 90.8509 19.6606 90.9474 19.9569 90.9474ZM25.6844 91.5201V85.4108H26.4242V88.1314H29.6817V85.4108H30.4215V91.5201H29.6817V88.7876H26.4242V91.5201H25.6844ZM31.8072 91.5201V86.9381H32.4873V87.6302H32.535C32.6186 87.4035 32.7697 87.2195 32.9885 87.0783C33.2072 86.9371 33.4538 86.8665 33.7283 86.8665C33.78 86.8665 33.8446 86.8675 33.9222 86.8695C33.9997 86.8715 34.0584 86.8745 34.0982 86.8785V87.5944C34.0743 87.5884 34.0196 87.5795 33.9341 87.5676C33.8506 87.5536 33.7621 87.5467 33.6686 87.5467C33.4459 87.5467 33.247 87.5934 33.072 87.6869C32.899 87.7784 32.7617 87.9056 32.6603 88.0687C32.5609 88.2298 32.5112 88.4138 32.5112 88.6206V91.5201H31.8072Z" fill="#85878D"/>
<path d="M12.579 121.608V120.999L15.2637 116.751H15.7052V117.694H15.4069L13.3784 120.904V120.951H16.9939V121.608H12.579ZM15.4547 122.861V121.423V121.139V116.751H16.1587V122.861H15.4547ZM20.1045 122.944C19.6551 122.944 19.2723 122.822 18.9561 122.577C18.6398 122.331 18.3982 121.974 18.2312 121.506C18.0641 121.037 17.9806 120.47 17.9806 119.806C17.9806 119.146 18.0641 118.582 18.2312 118.115C18.4002 117.645 18.6428 117.287 18.959 117.041C19.2772 116.792 19.6591 116.668 20.1045 116.668C20.55 116.668 20.9309 116.792 21.2471 117.041C21.5653 117.287 21.8079 117.645 21.9749 118.115C22.144 118.582 22.2285 119.146 22.2285 119.806C22.2285 120.47 22.145 121.037 21.9779 121.506C21.8109 121.974 21.5692 122.331 21.253 122.577C20.9368 122.822 20.554 122.944 20.1045 122.944ZM20.1045 122.288C20.55 122.288 20.896 122.073 21.1427 121.643C21.3893 121.214 21.5126 120.601 21.5126 119.806C21.5126 119.277 21.4559 118.826 21.3425 118.455C21.2311 118.083 21.0701 117.799 20.8593 117.604C20.6504 117.41 20.3989 117.312 20.1045 117.312C19.663 117.312 19.318 117.53 19.0694 117.965C18.8208 118.399 18.6965 119.012 18.6965 119.806C18.6965 120.335 18.7522 120.784 18.8636 121.154C18.9749 121.524 19.135 121.806 19.3439 121.998C19.5547 122.191 19.8082 122.288 20.1045 122.288ZM25.8321 122.861V116.751H26.5719V119.472H29.8294V116.751H30.5692V122.861H29.8294V120.128H26.5719V122.861H25.8321ZM31.9548 122.861V118.279H32.635V118.971H32.6827C32.7662 118.744 32.9174 118.56 33.1361 118.419C33.3549 118.278 33.6015 118.207 33.8759 118.207C33.9276 118.207 33.9923 118.208 34.0698 118.21C34.1474 118.212 34.206 118.215 34.2458 118.219V118.935C34.222 118.929 34.1673 118.92 34.0818 118.908C33.9982 118.894 33.9097 118.887 33.8163 118.887C33.5935 118.887 33.3947 118.934 33.2196 119.027C33.0466 119.119 32.9094 119.246 32.808 119.409C32.7085 119.57 32.6588 119.754 32.6588 119.961V122.861H31.9548Z" fill="#85878D"/>
<path d="M12.7222 152.112V151.575L14.7387 149.367C14.9754 149.109 15.1703 148.884 15.3234 148.693C15.4765 148.5 15.5899 148.319 15.6635 148.15C15.7391 147.979 15.7768 147.8 15.7768 147.613C15.7768 147.399 15.7251 147.213 15.6217 147.055C15.5203 146.898 15.3811 146.777 15.2041 146.692C15.0271 146.606 14.8282 146.563 14.6075 146.563C14.3728 146.563 14.168 146.612 13.993 146.709C13.8199 146.805 13.6857 146.939 13.5902 147.112C13.4968 147.285 13.45 147.488 13.45 147.721H12.746C12.746 147.363 12.8286 147.049 12.9936 146.778C13.1587 146.508 13.3834 146.297 13.6678 146.146C13.9542 145.995 14.2754 145.919 14.6313 145.919C14.9893 145.919 15.3065 145.995 15.5829 146.146C15.8594 146.297 16.0761 146.501 16.2332 146.757C16.3904 147.014 16.4689 147.299 16.4689 147.613C16.4689 147.838 16.4281 148.058 16.3466 148.273C16.2671 148.485 16.1278 148.723 15.929 148.986C15.7321 149.246 15.4586 149.564 15.1086 149.94L13.7364 151.408V151.456H16.5763V152.112H12.7222ZM19.801 152.195C19.3516 152.195 18.9687 152.073 18.6525 151.828C18.3363 151.582 18.0947 151.225 17.9276 150.757C17.7606 150.288 17.6771 149.721 17.6771 149.057C17.6771 148.397 17.7606 147.833 17.9276 147.366C18.0967 146.896 18.3393 146.538 18.6555 146.292C18.9737 146.043 19.3555 145.919 19.801 145.919C20.2465 145.919 20.6273 146.043 20.9435 146.292C21.2617 146.538 21.5043 146.896 21.6714 147.366C21.8404 147.833 21.925 148.397 21.925 149.057C21.925 149.721 21.8414 150.288 21.6744 150.757C21.5073 151.225 21.2657 151.582 20.9495 151.828C20.6333 152.073 20.2505 152.195 19.801 152.195ZM19.801 151.539C20.2465 151.539 20.5925 151.324 20.8391 150.895C21.0857 150.465 21.209 149.853 21.209 149.057C21.209 148.528 21.1523 148.078 21.039 147.706C20.9276 147.334 20.7665 147.051 20.5557 146.856C20.3469 146.661 20.0953 146.563 19.801 146.563C19.3595 146.563 19.0145 146.781 18.7659 147.217C18.5173 147.65 18.393 148.264 18.393 149.057C18.393 149.586 18.4487 150.036 18.56 150.405C18.6714 150.775 18.8315 151.057 19.0403 151.25C19.2511 151.443 19.5047 151.539 19.801 151.539ZM25.5285 152.112V146.002H26.2683V148.723H29.5258V146.002H30.2657V152.112H29.5258V149.379H26.2683V152.112H25.5285ZM31.6513 152.112V147.53H32.3314V148.222H32.3792C32.4627 147.995 32.6138 147.811 32.8326 147.67C33.0513 147.529 33.298 147.458 33.5724 147.458C33.6241 147.458 33.6887 147.459 33.7663 147.461C33.8439 147.463 33.9025 147.466 33.9423 147.47V148.186C33.9184 148.18 33.8637 148.171 33.7782 148.159C33.6947 148.145 33.6062 148.138 33.5127 148.138C33.29 148.138 33.0911 148.185 32.9161 148.279C32.7431 148.37 32.6059 148.497 32.5045 148.66C32.405 148.821 32.3553 149.005 32.3553 149.212V152.112H31.6513Z" fill="#85878D"/>
<path d="M19.5901 183.536C19.1406 183.536 18.7578 183.413 18.4416 183.169C18.1254 182.922 17.8838 182.565 17.7167 182.098C17.5496 181.629 17.4661 181.062 17.4661 180.398C17.4661 179.737 17.5496 179.174 17.7167 178.706C17.8857 178.237 18.1284 177.879 18.4446 177.632C18.7628 177.384 19.1446 177.259 19.5901 177.259C20.0355 177.259 20.4164 177.384 20.7326 177.632C21.0508 177.879 21.2934 178.237 21.4605 178.706C21.6295 179.174 21.714 179.737 21.714 180.398C21.714 181.062 21.6305 181.629 21.4634 182.098C21.2964 182.565 21.0548 182.922 20.7386 183.169C20.4224 183.413 20.0395 183.536 19.5901 183.536ZM19.5901 182.88C20.0355 182.88 20.3816 182.665 20.6282 182.235C20.8748 181.806 20.9981 181.193 20.9981 180.398C20.9981 179.869 20.9414 179.418 20.8281 179.046C20.7167 178.674 20.5556 178.391 20.3448 178.196C20.136 178.001 19.8844 177.904 19.5901 177.904C19.1486 177.904 18.8035 178.122 18.5549 178.557C18.3064 178.991 18.1821 179.604 18.1821 180.398C18.1821 180.927 18.2377 181.376 18.3491 181.746C18.4605 182.116 18.6206 182.397 18.8294 182.59C19.0402 182.783 19.2938 182.88 19.5901 182.88ZM25.3176 183.452V177.343H26.0574V180.063H29.3149V177.343H30.0547V183.452H29.3149V180.72H26.0574V183.452H25.3176ZM31.4404 183.452V178.87H32.1205V179.562H32.1682C32.2518 179.336 32.4029 179.152 32.6217 179.01C32.8404 178.869 33.087 178.799 33.3615 178.799C33.4132 178.799 33.4778 178.8 33.5554 178.802C33.6329 178.804 33.6916 178.807 33.7314 178.811V179.527C33.7075 179.521 33.6528 179.512 33.5673 179.5C33.4838 179.486 33.3953 179.479 33.3018 179.479C33.0791 179.479 32.8802 179.526 32.7052 179.619C32.5322 179.71 32.3949 179.838 32.2935 180.001C32.1941 180.162 32.1444 180.346 32.1444 180.553V183.452H31.4404Z" fill="#85878D"/>
<path d="M66.0098 191.969H66.7496V196.336C66.7496 196.726 66.678 197.057 66.5348 197.329C66.3916 197.602 66.1897 197.809 65.9292 197.95C65.6687 198.091 65.3614 198.162 65.0074 198.162C64.6733 198.162 64.376 198.101 64.1155 197.98C63.855 197.856 63.6501 197.681 63.501 197.455C63.3518 197.228 63.2773 196.958 63.2773 196.646H64.0051C64.0051 196.819 64.0479 196.97 64.1334 197.1C64.2209 197.227 64.3402 197.326 64.4914 197.398C64.6425 197.469 64.8145 197.505 65.0074 197.505C65.2202 197.505 65.4012 197.461 65.5504 197.371C65.6995 197.282 65.8129 197.15 65.8904 196.977C65.97 196.802 66.0098 196.588 66.0098 196.336V191.969ZM69.485 198.185C69.1947 198.185 68.9312 198.131 68.6945 198.021C68.4579 197.91 68.2699 197.75 68.1307 197.541C67.9915 197.33 67.9219 197.076 67.9219 196.777C67.9219 196.515 67.9736 196.302 68.077 196.139C68.1804 195.974 68.3187 195.845 68.4917 195.751C68.6647 195.658 68.8556 195.588 69.0644 195.542C69.2752 195.495 69.487 195.457 69.6998 195.429C69.9782 195.393 70.204 195.366 70.377 195.348C70.552 195.329 70.6793 195.296 70.7588 195.25C70.8403 195.204 70.8811 195.125 70.8811 195.011V194.988C70.8811 194.693 70.8006 194.465 70.6395 194.301C70.4804 194.138 70.2388 194.057 69.9146 194.057C69.5785 194.057 69.315 194.13 69.1241 194.278C68.9332 194.425 68.7989 194.582 68.7214 194.749L68.0532 194.51C68.1725 194.232 68.3316 194.015 68.5305 193.86C68.7313 193.703 68.9501 193.593 69.1867 193.532C69.4254 193.468 69.66 193.436 69.8907 193.436C70.0379 193.436 70.2069 193.454 70.3979 193.49C70.5908 193.524 70.7767 193.594 70.9557 193.702C71.1367 193.809 71.2868 193.971 71.4061 194.188C71.5255 194.405 71.5851 194.695 71.5851 195.059V198.078H70.8811V197.458H70.8453C70.7976 197.557 70.718 197.663 70.6067 197.777C70.4953 197.89 70.3471 197.987 70.1622 198.066C69.9772 198.146 69.7515 198.185 69.485 198.185ZM69.5924 197.553C69.8708 197.553 70.1055 197.498 70.2964 197.389C70.4893 197.28 70.6345 197.138 70.732 196.965C70.8314 196.792 70.8811 196.61 70.8811 196.419V195.775C70.8513 195.811 70.7857 195.844 70.6842 195.874C70.5848 195.901 70.4695 195.926 70.3382 195.948C70.2089 195.968 70.0826 195.986 69.9593 196.002C69.838 196.016 69.7396 196.028 69.664 196.038C69.4811 196.061 69.31 196.1 69.1509 196.154C68.9938 196.206 68.8665 196.284 68.7691 196.39C68.6736 196.493 68.6259 196.634 68.6259 196.813C68.6259 197.058 68.7164 197.243 68.8974 197.368C69.0803 197.491 69.312 197.553 69.5924 197.553ZM73.5741 195.322V198.078H72.8701V193.496H73.5502V194.212H73.6099C73.7173 193.979 73.8804 193.792 74.0991 193.651C74.3179 193.508 74.6003 193.436 74.9463 193.436C75.2565 193.436 75.528 193.5 75.7607 193.627C75.9934 193.753 76.1743 193.943 76.3036 194.2C76.4329 194.455 76.4975 194.777 76.4975 195.167V198.078H75.7935V195.214C75.7935 194.854 75.7 194.574 75.5131 194.373C75.3262 194.17 75.0696 194.069 74.7435 194.069C74.5187 194.069 74.3179 194.117 74.1409 194.215C73.9659 194.312 73.8277 194.455 73.7262 194.641C73.6248 194.828 73.5741 195.055 73.5741 195.322Z" fill="#95969C"/>
<path d="M113.816 198.078V191.969H117.479V192.625H114.556V194.689H117.205V195.346H114.556V198.078H113.816ZM120.236 198.173C119.794 198.173 119.413 198.076 119.093 197.881C118.775 197.684 118.529 197.41 118.356 197.058C118.185 196.704 118.1 196.292 118.1 195.823C118.1 195.353 118.185 194.94 118.356 194.582C118.529 194.222 118.77 193.941 119.078 193.741C119.388 193.538 119.75 193.436 120.164 193.436C120.403 193.436 120.638 193.476 120.871 193.556C121.104 193.635 121.315 193.764 121.506 193.943C121.697 194.12 121.849 194.355 121.963 194.647C122.076 194.94 122.133 195.3 122.133 195.727V196.026H118.601V195.417H121.417C121.417 195.159 121.365 194.928 121.262 194.725C121.16 194.522 121.015 194.362 120.826 194.245C120.639 194.127 120.418 194.069 120.164 194.069C119.884 194.069 119.641 194.138 119.436 194.278C119.233 194.415 119.077 194.594 118.968 194.815C118.858 195.035 118.804 195.272 118.804 195.524V195.93C118.804 196.276 118.863 196.57 118.983 196.81C119.104 197.049 119.272 197.231 119.487 197.356C119.702 197.479 119.951 197.541 120.236 197.541C120.42 197.541 120.588 197.515 120.737 197.463C120.888 197.41 121.018 197.33 121.127 197.225C121.237 197.117 121.321 196.984 121.381 196.825L122.061 197.016C121.99 197.247 121.869 197.45 121.7 197.625C121.531 197.798 121.322 197.933 121.074 198.03C120.825 198.126 120.546 198.173 120.236 198.173ZM123.299 198.078V191.969H124.003V194.224H124.063C124.115 194.144 124.186 194.043 124.278 193.92C124.371 193.794 124.504 193.683 124.677 193.585C124.852 193.486 125.089 193.436 125.387 193.436C125.773 193.436 126.113 193.533 126.408 193.726C126.702 193.919 126.932 194.192 127.097 194.546C127.262 194.9 127.344 195.318 127.344 195.799C127.344 196.284 127.262 196.705 127.097 197.061C126.932 197.415 126.703 197.689 126.411 197.884C126.118 198.077 125.781 198.173 125.399 198.173C125.105 198.173 124.869 198.125 124.692 198.027C124.515 197.928 124.379 197.815 124.284 197.69C124.188 197.563 124.115 197.458 124.063 197.374H123.979V198.078H123.299ZM123.991 195.787C123.991 196.133 124.042 196.438 124.143 196.703C124.245 196.965 124.393 197.171 124.588 197.32C124.783 197.467 125.021 197.541 125.304 197.541C125.598 197.541 125.844 197.463 126.041 197.308C126.239 197.151 126.389 196.94 126.488 196.676C126.589 196.409 126.64 196.113 126.64 195.787C126.64 195.465 126.59 195.174 126.491 194.916C126.394 194.655 126.245 194.45 126.047 194.298C125.85 194.145 125.602 194.069 125.304 194.069C125.017 194.069 124.777 194.141 124.582 194.287C124.387 194.43 124.24 194.631 124.14 194.889C124.041 195.146 123.991 195.445 123.991 195.787Z" fill="#95969C"/>
<path d="M163.264 191.969H164.147L166.224 197.04H166.295L168.371 191.969H169.254V198.078H168.562V193.436H168.503L166.594 198.078H165.925L164.016 193.436H163.957V198.078H163.264V191.969ZM171.991 198.185C171.7 198.185 171.437 198.131 171.2 198.021C170.964 197.91 170.776 197.75 170.636 197.541C170.497 197.33 170.428 197.076 170.428 196.777C170.428 196.515 170.479 196.302 170.583 196.139C170.686 195.974 170.824 195.845 170.997 195.751C171.17 195.658 171.361 195.588 171.57 195.542C171.781 195.495 171.993 195.457 172.205 195.429C172.484 195.393 172.71 195.366 172.883 195.348C173.058 195.329 173.185 195.296 173.264 195.25C173.346 195.204 173.387 195.125 173.387 195.011V194.988C173.387 194.693 173.306 194.465 173.145 194.301C172.986 194.138 172.744 194.057 172.42 194.057C172.084 194.057 171.821 194.13 171.63 194.278C171.439 194.425 171.305 194.582 171.227 194.749L170.559 194.51C170.678 194.232 170.837 194.015 171.036 193.86C171.237 193.703 171.456 193.593 171.692 193.532C171.931 193.468 172.166 193.436 172.396 193.436C172.544 193.436 172.713 193.454 172.904 193.49C173.096 193.524 173.282 193.594 173.461 193.702C173.642 193.809 173.792 193.971 173.912 194.188C174.031 194.405 174.091 194.695 174.091 195.059V198.078H173.387V197.458H173.351C173.303 197.557 173.224 197.663 173.112 197.777C173.001 197.89 172.853 197.987 172.668 198.066C172.483 198.146 172.257 198.185 171.991 198.185ZM172.098 197.553C172.376 197.553 172.611 197.498 172.802 197.389C172.995 197.28 173.14 197.138 173.238 196.965C173.337 196.792 173.387 196.61 173.387 196.419V195.775C173.357 195.811 173.291 195.844 173.19 195.874C173.09 195.901 172.975 195.926 172.844 195.948C172.715 195.968 172.588 195.986 172.465 196.002C172.344 196.016 172.245 196.028 172.17 196.038C171.987 196.061 171.816 196.1 171.657 196.154C171.499 196.206 171.372 196.284 171.275 196.39C171.179 196.493 171.132 196.634 171.132 196.813C171.132 197.058 171.222 197.243 171.403 197.368C171.586 197.491 171.818 197.553 172.098 197.553ZM175.376 198.078V193.496H176.056V194.188H176.104C176.187 193.961 176.338 193.777 176.557 193.636C176.776 193.495 177.022 193.424 177.297 193.424C177.349 193.424 177.413 193.425 177.491 193.427C177.568 193.429 177.627 193.432 177.667 193.436V194.152C177.643 194.146 177.588 194.137 177.503 194.125C177.419 194.112 177.331 194.105 177.237 194.105C177.014 194.105 176.816 194.151 176.641 194.245C176.468 194.336 176.33 194.464 176.229 194.627C176.129 194.788 176.08 194.972 176.08 195.178V198.078H175.376Z" fill="#95969C"/>
<path d="M212.267 198.078H211.491L213.735 191.969H214.498L216.742 198.078H215.966L214.14 192.935H214.093L212.267 198.078ZM212.553 195.692H215.68V196.348H212.553V195.692ZM217.598 199.796V193.496H218.278V194.224H218.361C218.413 194.144 218.485 194.043 218.576 193.92C218.67 193.794 218.803 193.683 218.976 193.585C219.151 193.486 219.388 193.436 219.686 193.436C220.072 193.436 220.412 193.533 220.706 193.726C221.001 193.919 221.23 194.192 221.395 194.546C221.56 194.9 221.643 195.318 221.643 195.799C221.643 196.284 221.56 196.705 221.395 197.061C221.23 197.415 221.002 197.689 220.709 197.884C220.417 198.077 220.08 198.173 219.698 198.173C219.404 198.173 219.168 198.125 218.991 198.027C218.814 197.928 218.678 197.815 218.582 197.69C218.487 197.563 218.413 197.458 218.361 197.374H218.302V199.796H217.598ZM218.29 195.787C218.29 196.133 218.341 196.438 218.442 196.703C218.543 196.965 218.692 197.171 218.887 197.32C219.081 197.467 219.32 197.541 219.602 197.541C219.897 197.541 220.142 197.463 220.339 197.308C220.538 197.151 220.687 196.94 220.787 196.676C220.888 196.409 220.939 196.113 220.939 195.787C220.939 195.465 220.889 195.174 220.79 194.916C220.692 194.655 220.544 194.45 220.345 194.298C220.148 194.145 219.901 194.069 219.602 194.069C219.316 194.069 219.075 194.141 218.881 194.287C218.686 194.43 218.538 194.631 218.439 194.889C218.34 195.146 218.29 195.445 218.29 195.787ZM222.717 198.078V193.496H223.397V194.188H223.445C223.528 193.961 223.679 193.777 223.898 193.636C224.117 193.495 224.363 193.424 224.638 193.424C224.69 193.424 224.754 193.425 224.832 193.427C224.909 193.429 224.968 193.432 225.008 193.436V194.152C224.984 194.146 224.929 194.137 224.844 194.125C224.76 194.112 224.672 194.105 224.578 194.105C224.355 194.105 224.157 194.151 223.982 194.245C223.809 194.336 223.671 194.464 223.57 194.627C223.471 194.788 223.421 194.972 223.421 195.178V198.078H222.717Z" fill="#95969C"/>
<path d="M261.465 191.969H262.348L264.424 197.04H264.496L266.572 191.969H267.455V198.078H266.763V193.436H266.703L264.794 198.078H264.126L262.217 193.436H262.157V198.078H261.465V191.969ZM270.191 198.185C269.901 198.185 269.637 198.131 269.401 198.021C269.164 197.91 268.976 197.75 268.837 197.541C268.698 197.33 268.628 197.076 268.628 196.777C268.628 196.515 268.68 196.302 268.783 196.139C268.887 195.974 269.025 195.845 269.198 195.751C269.371 195.658 269.562 195.588 269.771 195.542C269.981 195.495 270.193 195.457 270.406 195.429C270.684 195.393 270.91 195.366 271.083 195.348C271.258 195.329 271.385 195.296 271.465 195.25C271.546 195.204 271.587 195.125 271.587 195.011V194.988C271.587 194.693 271.507 194.465 271.346 194.301C271.187 194.138 270.945 194.057 270.621 194.057C270.285 194.057 270.021 194.13 269.83 194.278C269.639 194.425 269.505 194.582 269.427 194.749L268.759 194.51C268.879 194.232 269.038 194.015 269.237 193.86C269.437 193.703 269.656 193.593 269.893 193.532C270.131 193.468 270.366 193.436 270.597 193.436C270.744 193.436 270.913 193.454 271.104 193.49C271.297 193.524 271.483 193.594 271.662 193.702C271.843 193.809 271.993 193.971 272.112 194.188C272.232 194.405 272.291 194.695 272.291 195.059V198.078H271.587V197.458H271.551C271.504 197.557 271.424 197.663 271.313 197.777C271.201 197.89 271.053 197.987 270.868 198.066C270.683 198.146 270.458 198.185 270.191 198.185ZM270.299 197.553C270.577 197.553 270.812 197.498 271.003 197.389C271.195 197.28 271.341 197.138 271.438 196.965C271.538 196.792 271.587 196.61 271.587 196.419V195.775C271.557 195.811 271.492 195.844 271.39 195.874C271.291 195.901 271.176 195.926 271.044 195.948C270.915 195.968 270.789 195.986 270.665 196.002C270.544 196.016 270.446 196.028 270.37 196.038C270.187 196.061 270.016 196.1 269.857 196.154C269.7 196.206 269.573 196.284 269.475 196.39C269.38 196.493 269.332 196.634 269.332 196.813C269.332 197.058 269.423 197.243 269.603 197.368C269.786 197.491 270.018 197.553 270.299 197.553ZM273.866 199.796C273.746 199.796 273.64 199.786 273.546 199.766C273.453 199.749 273.388 199.731 273.352 199.713L273.531 199.092C273.702 199.136 273.854 199.152 273.985 199.14C274.116 199.128 274.232 199.069 274.334 198.964C274.437 198.861 274.532 198.693 274.617 198.46L274.749 198.102L273.054 193.496H273.818L275.083 197.147H275.13L276.395 193.496H277.159L275.214 198.746C275.126 198.983 275.018 199.179 274.889 199.334C274.759 199.491 274.609 199.607 274.438 199.683C274.269 199.758 274.078 199.796 273.866 199.796Z" fill="#95969C"/>
<rect x="12.0898" y="15.9636" width="11.1433" height="11.1433" rx="2.78583" fill="#0063F8"/>
<path d="M32.7275 20.1054C32.6997 19.8449 32.5823 19.642 32.3755 19.4968C32.1707 19.3517 31.9042 19.2791 31.576 19.2791C31.3453 19.2791 31.1475 19.3139 30.9824 19.3835C30.8173 19.4531 30.691 19.5475 30.6035 19.6669C30.516 19.7862 30.4713 19.9224 30.4693 20.0755C30.4693 20.2028 30.4981 20.3132 30.5558 20.4067C30.6155 20.5001 30.696 20.5797 30.7974 20.6453C30.8989 20.709 31.0112 20.7626 31.1345 20.8064C31.2578 20.8502 31.3821 20.8869 31.5074 20.9168L32.0802 21.06C32.3109 21.1137 32.5326 21.1862 32.7454 21.2777C32.9602 21.3692 33.1521 21.4846 33.3211 21.6238C33.4922 21.763 33.6274 21.931 33.7268 22.1279C33.8263 22.3248 33.876 22.5555 33.876 22.82C33.876 23.1779 33.7845 23.4932 33.6015 23.7656C33.4186 24.0361 33.1541 24.2479 32.808 24.401C32.464 24.5522 32.0474 24.6277 31.5581 24.6277C31.0828 24.6277 30.6702 24.5541 30.3202 24.407C29.9721 24.2598 29.6997 24.045 29.5028 23.7626C29.3079 23.4802 29.2025 23.1362 29.1866 22.7305H30.2754C30.2913 22.9433 30.3569 23.1203 30.4723 23.2615C30.5876 23.4027 30.7378 23.5081 30.9227 23.5777C31.1097 23.6473 31.3185 23.6821 31.5492 23.6821C31.7898 23.6821 32.0006 23.6463 32.1816 23.5747C32.3646 23.5011 32.5077 23.3997 32.6112 23.2704C32.7146 23.1392 32.7673 22.986 32.7693 22.811C32.7673 22.6519 32.7205 22.5207 32.6291 22.4173C32.5376 22.3119 32.4093 22.2244 32.2442 22.1548C32.0812 22.0832 31.8902 22.0195 31.6715 21.9638L30.9764 21.7848C30.4733 21.6556 30.0755 21.4597 29.7832 21.1972C29.4928 20.9327 29.3477 20.5817 29.3477 20.1442C29.3477 19.7842 29.4451 19.469 29.64 19.1985C29.8369 18.9281 30.1044 18.7182 30.4425 18.5691C30.7805 18.4179 31.1634 18.3424 31.5909 18.3424C32.0245 18.3424 32.4043 18.4179 32.7305 18.5691C33.0586 18.7182 33.3162 18.9261 33.5031 19.1926C33.69 19.4571 33.7865 19.7613 33.7925 20.1054H32.7275ZM37.1029 19.9532V20.7885H34.4689V19.9532H37.1029ZM35.1192 18.8555H36.1991V23.1571C36.1991 23.3022 36.2209 23.4136 36.2647 23.4912C36.3104 23.5667 36.3701 23.6184 36.4437 23.6463C36.5172 23.6741 36.5988 23.6881 36.6883 23.6881C36.7559 23.6881 36.8175 23.6831 36.8732 23.6731C36.9309 23.6632 36.9747 23.6542 37.0045 23.6463L37.1865 24.4905C37.1288 24.5104 37.0462 24.5323 36.9389 24.5561C36.8335 24.58 36.7042 24.5939 36.5511 24.5979C36.2806 24.6058 36.037 24.5651 35.8202 24.4756C35.6034 24.3841 35.4314 24.2429 35.3041 24.052C35.1788 23.8611 35.1172 23.6224 35.1192 23.3361V18.8555ZM40.9265 22.6082V19.9532H42.0064V24.5352H40.9593V23.7209H40.9116C40.8082 23.9774 40.6381 24.1872 40.4015 24.3503C40.1668 24.5134 39.8774 24.5949 39.5334 24.5949C39.2331 24.5949 38.9676 24.5283 38.7369 24.395C38.5082 24.2598 38.3292 24.0639 38.2 23.8074C38.0707 23.5488 38.0061 23.2366 38.0061 22.8707V19.9532H39.0859V22.7036C39.0859 22.994 39.1655 23.2247 39.3246 23.3957C39.4837 23.5667 39.6925 23.6523 39.951 23.6523C40.1101 23.6523 40.2642 23.6135 40.4134 23.5359C40.5626 23.4584 40.6849 23.343 40.7803 23.1899C40.8778 23.0348 40.9265 22.8409 40.9265 22.6082ZM44.8172 24.6158C44.4572 24.6158 44.135 24.5233 43.8507 24.3384C43.5663 24.1534 43.3415 23.8849 43.1765 23.5329C43.0114 23.1809 42.9289 22.7534 42.9289 22.2502C42.9289 21.7411 43.0124 21.3115 43.1795 20.9615C43.3485 20.6095 43.5762 20.344 43.8626 20.165C44.149 19.9841 44.4681 19.8936 44.8202 19.8936C45.0886 19.8936 45.3094 19.9393 45.4824 20.0308C45.6554 20.1203 45.7926 20.2287 45.8941 20.356C45.9955 20.4812 46.074 20.5996 46.1297 20.7109H46.1745V18.4259H47.2573V24.5352H46.1954V23.8133H46.1297C46.074 23.9247 45.9935 24.043 45.8881 24.1683C45.7827 24.2916 45.6435 24.397 45.4705 24.4845C45.2974 24.572 45.0797 24.6158 44.8172 24.6158ZM45.1185 23.7298C45.3472 23.7298 45.5421 23.6682 45.7031 23.5449C45.8642 23.4196 45.9865 23.2456 46.0701 23.0228C46.1536 22.8001 46.1954 22.5406 46.1954 22.2442C46.1954 21.9479 46.1536 21.6904 46.0701 21.4716C45.9885 21.2529 45.8672 21.0828 45.7061 20.9615C45.547 20.8402 45.3511 20.7796 45.1185 20.7796C44.8778 20.7796 44.677 20.8422 44.5159 20.9675C44.3548 21.0928 44.2335 21.2658 44.1519 21.4865C44.0704 21.7073 44.0296 21.9599 44.0296 22.2442C44.0296 22.5306 44.0704 22.7862 44.1519 23.0109C44.2355 23.2336 44.3578 23.4096 44.5189 23.5389C44.6819 23.6662 44.8818 23.7298 45.1185 23.7298ZM49.0792 26.2535C48.9321 26.2535 48.7958 26.2416 48.6706 26.2177C48.5473 26.1958 48.4488 26.17 48.3752 26.1401L48.6258 25.2989C48.7829 25.3447 48.9231 25.3665 49.0464 25.3645C49.1697 25.3626 49.2781 25.3238 49.3716 25.2482C49.467 25.1746 49.5476 25.0513 49.6132 24.8783L49.7057 24.6307L48.0441 19.9532H49.1896L50.2456 23.4136H50.2934L51.3523 19.9532H52.5008L50.6662 25.0901C50.5807 25.3327 50.4674 25.5405 50.3262 25.7136C50.185 25.8886 50.012 26.0218 49.8071 26.1133C49.6043 26.2068 49.3616 26.2535 49.0792 26.2535Z" fill="#999999"/>
<rect x="73.3781" y="16.6602" width="11.1433" height="11.1433" rx="2.78583" fill="#E5F0FF"/>
<path d="M96.1547 22.1772C96.1547 22.8354 96.0314 23.3992 95.7848 23.8686C95.5402 24.3359 95.2061 24.6939 94.7825 24.9425C94.3609 25.1911 93.8826 25.3154 93.3476 25.3154C92.8127 25.3154 92.3334 25.1911 91.9098 24.9425C91.4882 24.6919 91.1541 24.3329 90.9075 23.8656C90.6628 23.3963 90.5405 22.8334 90.5405 22.1772C90.5405 21.5189 90.6628 20.9561 90.9075 20.4887C91.1541 20.0194 91.4882 19.6604 91.9098 19.4119C92.3334 19.1633 92.8127 19.039 93.3476 19.039C93.8826 19.039 94.3609 19.1633 94.7825 19.4119C95.2061 19.6604 95.5402 20.0194 95.7848 20.4887C96.0314 20.9561 96.1547 21.5189 96.1547 22.1772ZM95.042 22.1772C95.042 21.7138 94.9694 21.323 94.8242 21.0048C94.6811 20.6846 94.4822 20.443 94.2276 20.2799C93.9731 20.1149 93.6797 20.0323 93.3476 20.0323C93.0155 20.0323 92.7222 20.1149 92.4676 20.2799C92.2131 20.443 92.0132 20.6846 91.868 21.0048C91.7248 21.323 91.6532 21.7138 91.6532 22.1772C91.6532 22.6405 91.7248 23.0323 91.868 23.3525C92.0132 23.6707 92.2131 23.9123 92.4676 24.0774C92.7222 24.2405 93.0155 24.322 93.3476 24.322C93.6797 24.322 93.9731 24.2405 94.2276 24.0774C94.4822 23.9123 94.6811 23.6707 94.8242 23.3525C94.9694 23.0323 95.042 22.6405 95.042 22.1772ZM98.2332 22.5471V25.2318H97.1533V20.6498H98.1854V21.4284H98.2391C98.3445 21.1719 98.5126 20.968 98.7433 20.8169C98.9759 20.6657 99.2633 20.5902 99.6054 20.5902C99.9216 20.5902 100.197 20.6578 100.432 20.793C100.668 20.9283 100.851 21.1241 100.981 21.3807C101.112 21.6372 101.176 21.9485 101.174 22.3144V25.2318H100.095V22.4814C100.095 22.1752 100.015 21.9355 99.8559 21.7625C99.6988 21.5895 99.4811 21.503 99.2027 21.503C99.0137 21.503 98.8457 21.5448 98.6985 21.6283C98.5533 21.7098 98.439 21.8281 98.3555 21.9833C98.2739 22.1384 98.2332 22.3263 98.2332 22.5471ZM103.352 19.1225V25.2318H102.272V19.1225H103.352ZM104.463 25.2318V20.6498H105.542V25.2318H104.463ZM105.005 19.9995C104.834 19.9995 104.687 19.9428 104.564 19.8295C104.441 19.7141 104.379 19.5759 104.379 19.4148C104.379 19.2518 104.441 19.1135 104.564 19.0002C104.687 18.8848 104.834 18.8272 105.005 18.8272C105.179 18.8272 105.326 18.8848 105.447 19.0002C105.57 19.1135 105.632 19.2518 105.632 19.4148C105.632 19.5759 105.57 19.7141 105.447 19.8295C105.326 19.9428 105.179 19.9995 105.005 19.9995ZM107.733 22.5471V25.2318H106.653V20.6498H107.685V21.4284H107.739C107.844 21.1719 108.012 20.968 108.243 20.8169C108.476 20.6657 108.763 20.5902 109.105 20.5902C109.421 20.5902 109.697 20.6578 109.931 20.793C110.168 20.9283 110.351 21.1241 110.48 21.3807C110.611 21.6372 110.676 21.9485 110.674 22.3144V25.2318H109.594V22.4814C109.594 22.1752 109.515 21.9355 109.356 21.7625C109.198 21.5895 108.981 21.503 108.702 21.503C108.513 21.503 108.345 21.5448 108.198 21.6283C108.053 21.7098 107.939 21.8281 107.855 21.9833C107.774 22.1384 107.733 22.3263 107.733 22.5471ZM113.8 25.3213C113.341 25.3213 112.944 25.2259 112.61 25.035C112.278 24.8421 112.022 24.5696 111.843 24.2176C111.664 23.8636 111.575 23.447 111.575 22.9677C111.575 22.4964 111.664 22.0827 111.843 21.7267C112.024 21.3688 112.277 21.0903 112.601 20.8915C112.925 20.6906 113.306 20.5902 113.744 20.5902C114.026 20.5902 114.293 20.6359 114.543 20.7274C114.796 20.8169 115.018 20.9561 115.211 21.145C115.406 21.334 115.559 21.5746 115.671 21.8669C115.782 22.1573 115.838 22.5033 115.838 22.905V23.2362H112.082V22.5083H114.803C114.801 22.3015 114.756 22.1175 114.668 21.9564C114.581 21.7933 114.459 21.6651 114.302 21.5716C114.146 21.4781 113.965 21.4314 113.759 21.4314C113.538 21.4314 113.344 21.4851 113.177 21.5925C113.01 21.6979 112.88 21.8371 112.786 22.0101C112.695 22.1811 112.648 22.3691 112.646 22.5739V23.2093C112.646 23.4758 112.695 23.7045 112.792 23.8954C112.89 24.0844 113.026 24.2295 113.201 24.331C113.376 24.4304 113.581 24.4801 113.815 24.4801C113.972 24.4801 114.115 24.4582 114.242 24.4145C114.369 24.3687 114.479 24.3021 114.573 24.2146C114.666 24.1271 114.737 24.0187 114.785 23.8895L115.793 24.0028C115.729 24.2693 115.608 24.502 115.429 24.7009C115.252 24.8977 115.025 25.0509 114.749 25.1602C114.473 25.2676 114.156 25.3213 113.8 25.3213ZM118.614 20.0502V19.1225H123.489V20.0502H121.6V25.2318H120.503V20.0502H118.614ZM125.745 25.3213C125.285 25.3213 124.888 25.2259 124.554 25.035C124.222 24.8421 123.967 24.5696 123.788 24.2176C123.609 23.8636 123.519 23.447 123.519 22.9677C123.519 22.4964 123.609 22.0827 123.788 21.7267C123.969 21.3688 124.221 21.0903 124.545 20.8915C124.87 20.6906 125.25 20.5902 125.688 20.5902C125.97 20.5902 126.237 20.6359 126.487 20.7274C126.74 20.8169 126.963 20.9561 127.156 21.145C127.35 21.334 127.504 21.5746 127.615 21.8669C127.726 22.1573 127.782 22.5033 127.782 22.905V23.2362H124.026V22.5083H126.747C126.745 22.3015 126.7 22.1175 126.613 21.9564C126.525 21.7933 126.403 21.6651 126.246 21.5716C126.091 21.4781 125.91 21.4314 125.703 21.4314C125.482 21.4314 125.288 21.4851 125.121 21.5925C124.954 21.6979 124.824 21.8371 124.73 22.0101C124.639 22.1811 124.592 22.3691 124.59 22.5739V23.2093C124.59 23.4758 124.639 23.7045 124.736 23.8954C124.834 24.0844 124.97 24.2295 125.145 24.331C125.32 24.4304 125.525 24.4801 125.76 24.4801C125.917 24.4801 126.059 24.4582 126.186 24.4145C126.313 24.3687 126.424 24.3021 126.517 24.2146C126.611 24.1271 126.681 24.0187 126.729 23.8895L127.737 24.0028C127.674 24.2693 127.552 24.502 127.373 24.7009C127.196 24.8977 126.97 25.0509 126.693 25.1602C126.417 25.2676 126.101 25.3213 125.745 25.3213ZM132.317 21.861L131.333 21.9684C131.305 21.8689 131.256 21.7754 131.186 21.6879C131.119 21.6004 131.027 21.5298 130.912 21.4761C130.797 21.4225 130.655 21.3956 130.488 21.3956C130.264 21.3956 130.075 21.4443 129.922 21.5418C129.771 21.6392 129.696 21.7655 129.698 21.9206C129.696 22.0539 129.745 22.1623 129.844 22.2458C129.946 22.3293 130.113 22.3979 130.345 22.4516L131.127 22.6187C131.56 22.7121 131.883 22.8603 132.093 23.0631C132.306 23.266 132.414 23.5315 132.416 23.8596C132.414 24.148 132.329 24.4025 132.162 24.6233C131.997 24.8421 131.767 25.0131 131.473 25.1364C131.179 25.2597 130.84 25.3213 130.459 25.3213C129.898 25.3213 129.446 25.204 129.104 24.9693C128.762 24.7327 128.558 24.4035 128.493 23.9819L129.546 23.8805C129.594 24.0873 129.695 24.2434 129.85 24.3489C130.005 24.4543 130.207 24.507 130.456 24.507C130.712 24.507 130.918 24.4543 131.073 24.3489C131.23 24.2434 131.309 24.1132 131.309 23.9581C131.309 23.8268 131.258 23.7184 131.157 23.6329C131.057 23.5474 130.902 23.4818 130.691 23.436L129.91 23.272C129.47 23.1805 129.145 23.0264 128.934 22.8096C128.723 22.5908 128.619 22.3144 128.621 21.9803C128.619 21.6979 128.696 21.4533 128.851 21.2464C129.008 21.0376 129.226 20.8765 129.504 20.7632C129.784 20.6478 130.108 20.5902 130.474 20.5902C131.01 20.5902 131.433 20.7045 131.741 20.9332C132.052 21.1619 132.243 21.4712 132.317 21.861ZM135.594 20.6498V21.4851H132.96V20.6498H135.594ZM133.61 19.5521H134.69V23.8537C134.69 23.9988 134.712 24.1102 134.756 24.1878C134.801 24.2633 134.861 24.315 134.935 24.3429C135.008 24.3707 135.09 24.3846 135.179 24.3846C135.247 24.3846 135.309 24.3797 135.364 24.3697C135.422 24.3598 135.466 24.3508 135.496 24.3429L135.678 25.1871C135.62 25.207 135.537 25.2289 135.43 25.2527C135.325 25.2766 135.195 25.2905 135.042 25.2945C134.772 25.3024 134.528 25.2617 134.311 25.1722C134.094 25.0807 133.922 24.9395 133.795 24.7486C133.67 24.5577 133.608 24.319 133.61 24.0326V19.5521Z" fill="#999999"/>
<rect x="55.2701" y="77.2518" width="32.037" height="102.379" rx="6.96458" fill="#E6F0FF"/>
<rect x="104.719" y="116.95" width="32.037" height="61.9847" rx="6.96458" fill="#E6F0FF"/>
<rect x="154.167" y="68.198" width="32.037" height="111.433" rx="6.96458" fill="#E6F0FF"/>
<rect x="203.616" y="100.235" width="32.037" height="78.6997" rx="6.96458" fill="#E6F0FF"/>
<rect x="253.064" y="142.719" width="32.037" height="37.6087" rx="6.96458" fill="#E6F0FF"/>
<path d="M55.2701 124.611H87.3072V172.667C87.3072 176.513 84.189 179.631 80.3426 179.631H62.2347C58.3883 179.631 55.2701 176.513 55.2701 172.667V124.611Z" fill="#0063F8"/>
<path d="M104.719 147.594H136.756V172.667C136.756 176.513 133.638 179.631 129.791 179.631H111.683C107.837 179.631 104.719 176.513 104.719 172.667V147.594Z" fill="#0063F8"/>
<path d="M154.167 84.2165H186.204V172.667C186.204 176.513 183.086 179.631 179.24 179.631H161.132C157.285 179.631 154.167 176.513 154.167 172.667V84.2165Z" fill="#0063F8"/>
<path d="M203.616 125.308H235.653V172.667C235.653 176.513 232.534 179.631 228.688 179.631H210.58C206.734 179.631 203.616 176.513 203.616 172.667V125.308Z" fill="#0063F8"/>
<path d="M253.064 157.345H285.101V174.06C285.101 177.906 281.983 181.024 278.137 181.024H260.029C256.182 181.024 253.064 177.906 253.064 174.06V157.345Z" fill="#0063F8"/>
<path d="M45.5197 57.0547H303.209" stroke="#E9E9E9" stroke-width="1.04469" stroke-linecap="round" stroke-dasharray="6.27 6.96"/>
<path d="M237.045 61.2335C239.353 61.2335 241.224 63.1043 241.224 65.4122V89.7881C241.224 92.096 239.353 93.9669 237.045 93.9669H222.801C222.237 95.1555 221.015 97.4487 219.983 97.4493C218.951 97.4493 217.728 95.1556 217.163 93.9669H203.616C201.308 93.9668 199.437 92.096 199.437 89.7881V65.4122C199.437 63.1043 201.308 61.2335 203.616 61.2335H237.045Z" fill="#1F1C3B"/>
<rect x="206.401" y="67.1264" width="5.57166" height="5.57166" rx="1.39292" fill="#0063F8"/>
<path d="M217.795 72.4843C217.442 72.4843 217.127 72.4234 216.849 72.3017C216.573 72.18 216.355 72.0111 216.193 71.7951C216.034 71.5773 215.948 71.3253 215.936 71.039H216.744C216.754 71.195 216.806 71.3305 216.901 71.4453C216.997 71.5585 217.122 71.6459 217.276 71.7076C217.43 71.7694 217.602 71.8002 217.79 71.8002C217.998 71.8002 218.181 71.7642 218.341 71.6922C218.502 71.6202 218.628 71.5199 218.719 71.3913C218.81 71.261 218.855 71.111 218.855 70.9413C218.855 70.7647 218.81 70.6096 218.719 70.4758C218.63 70.3404 218.498 70.2341 218.325 70.157C218.154 70.0798 217.946 70.0412 217.703 70.0412H217.258V69.3932H217.703C217.898 69.3932 218.07 69.358 218.217 69.2877C218.366 69.2175 218.483 69.1197 218.567 68.9946C218.651 68.8677 218.693 68.7194 218.693 68.5497C218.693 68.3868 218.656 68.2454 218.582 68.1254C218.51 68.0036 218.408 67.9085 218.274 67.8399C218.142 67.7713 217.986 67.7371 217.806 67.7371C217.634 67.7371 217.474 67.7688 217.325 67.8322C217.177 67.8939 217.057 67.9831 216.965 68.0997C216.872 68.2145 216.823 68.3525 216.816 68.5137H216.047C216.055 68.2291 216.139 67.9788 216.299 67.7628C216.46 67.5468 216.673 67.3779 216.937 67.2562C217.201 67.1344 217.494 67.0736 217.816 67.0736C218.154 67.0736 218.445 67.1396 218.69 67.2716C218.937 67.4019 219.128 67.5759 219.261 67.7936C219.397 68.0114 219.464 68.2497 219.462 68.5085C219.464 68.8034 219.381 69.0537 219.215 69.2595C219.05 69.4652 218.831 69.6032 218.557 69.6735V69.7146C218.906 69.7678 219.177 69.9066 219.369 70.1312C219.563 70.3558 219.659 70.6344 219.657 70.967C219.659 71.2567 219.578 71.5165 219.416 71.7462C219.254 71.9759 219.034 72.1568 218.755 72.2888C218.475 72.4191 218.156 72.4843 217.795 72.4843ZM222.368 72.4843C222.046 72.4843 221.756 72.4225 221.499 72.2991C221.243 72.174 221.039 72.0025 220.887 71.7848C220.734 71.5671 220.653 71.3185 220.642 71.039H221.414C221.433 71.2653 221.533 71.4513 221.715 71.5971C221.896 71.7428 222.114 71.8156 222.368 71.8156C222.57 71.8156 222.749 71.7694 222.905 71.6768C223.063 71.5825 223.186 71.453 223.276 71.2885C223.366 71.1239 223.412 70.9362 223.412 70.7253C223.412 70.511 223.366 70.3198 223.273 70.1518C223.18 69.9838 223.053 69.8518 222.89 69.7558C222.729 69.6598 222.544 69.6109 222.334 69.6092C222.175 69.6092 222.015 69.6366 221.854 69.6915C221.692 69.7463 221.562 69.8184 221.463 69.9075L220.735 69.7995L221.031 67.1456H223.926V67.8271H221.691L221.524 69.3006H221.555C221.658 69.2012 221.794 69.118 221.964 69.0512C222.136 68.9843 222.319 68.9509 222.514 68.9509C222.835 68.9509 223.12 69.0272 223.371 69.1797C223.623 69.3323 223.821 69.5406 223.965 69.8046C224.111 70.0669 224.183 70.3687 224.181 70.7098C224.183 71.051 224.105 71.3553 223.949 71.6228C223.795 71.8902 223.581 72.1011 223.306 72.2554C223.034 72.408 222.721 72.4843 222.368 72.4843ZM227.109 72.4123V67.1456H227.903V69.4343H230.529V67.1456H231.326V72.4123H230.529V70.1158H227.903V72.4123H227.109ZM232.422 72.4123V68.4623H233.165V69.0897H233.206C233.278 68.8771 233.405 68.71 233.587 68.5883C233.77 68.4648 233.977 68.4031 234.209 68.4031C234.257 68.4031 234.313 68.4048 234.379 68.4083C234.445 68.4117 234.498 68.416 234.535 68.4211V69.1566C234.505 69.148 234.45 69.1386 234.371 69.1283C234.292 69.1163 234.213 69.1103 234.134 69.1103C233.953 69.1103 233.791 69.1489 233.648 69.226C233.508 69.3015 233.396 69.4069 233.314 69.5423C233.232 69.6761 233.19 69.8286 233.19 70.0001V72.4123H232.422Z" fill="#E9E9E9"/>
<rect x="206.401" y="81.0556" width="5.57166" height="5.57166" rx="1.39292" fill="#E6F0FF"/>
<path d="M217.7 86.4134C217.378 86.4134 217.088 86.3517 216.831 86.2283C216.576 86.1031 216.372 85.9317 216.219 85.714C216.067 85.4962 215.985 85.2476 215.975 84.9682H216.746C216.765 85.1945 216.865 85.3805 217.047 85.5262C217.229 85.672 217.447 85.7448 217.7 85.7448C217.903 85.7448 218.082 85.6985 218.238 85.6059C218.396 85.5117 218.519 85.3822 218.608 85.2176C218.699 85.053 218.744 84.8653 218.744 84.6544C218.744 84.4401 218.698 84.249 218.606 84.081C218.513 83.913 218.385 83.781 218.222 83.6849C218.061 83.5889 217.876 83.5401 217.667 83.5384C217.507 83.5384 217.347 83.5658 217.186 83.6207C217.025 83.6755 216.895 83.7475 216.795 83.8367L216.067 83.7287L216.363 81.0748H219.259V81.7562H217.024L216.857 83.2298H216.888C216.991 83.1303 217.127 83.0472 217.297 82.9803C217.468 82.9135 217.651 82.88 217.847 82.88C218.168 82.88 218.453 82.9563 218.703 83.1089C218.955 83.2615 219.153 83.4698 219.297 83.7338C219.443 83.9961 219.515 84.2979 219.513 84.639C219.515 84.9802 219.438 85.2845 219.282 85.5519C219.128 85.8194 218.913 86.0303 218.639 86.1846C218.366 86.3371 218.054 86.4134 217.7 86.4134ZM220.453 86.3414V85.7654L222.235 83.919C222.425 83.7184 222.582 83.5427 222.705 83.3918C222.831 83.2392 222.924 83.0943 222.986 82.9572C223.047 82.82 223.078 82.6743 223.078 82.52C223.078 82.3451 223.037 82.1943 222.955 82.0674C222.873 81.9388 222.76 81.8402 222.618 81.7717C222.476 81.7014 222.315 81.6662 222.137 81.6662C221.948 81.6662 221.784 81.7048 221.643 81.7819C221.503 81.8591 221.395 81.968 221.319 82.1085C221.244 82.2491 221.206 82.4137 221.206 82.6023H220.447C220.447 82.2817 220.521 82.0014 220.669 81.7614C220.816 81.5214 221.018 81.3353 221.276 81.2033C221.533 81.0696 221.825 81.0027 222.152 81.0027C222.483 81.0027 222.775 81.0688 223.027 81.2008C223.281 81.3311 223.479 81.5094 223.621 81.7357C223.763 81.9602 223.834 82.214 223.834 82.4969C223.834 82.6923 223.797 82.8835 223.724 83.0703C223.652 83.2572 223.526 83.4655 223.346 83.6952C223.166 83.9233 222.915 84.2001 222.595 84.5259L221.548 85.6214V85.66H223.919V86.3414H220.453ZM226.882 86.3414V81.0748H227.677V83.3635H230.303V81.0748H231.1V86.3414H230.303V84.045H227.677V86.3414H226.882ZM232.195 86.3414V82.3914H232.938V83.0189H232.98C233.052 82.8063 233.178 82.6392 233.36 82.5174C233.544 82.394 233.751 82.3323 233.983 82.3323C234.031 82.3323 234.087 82.334 234.152 82.3374C234.219 82.3408 234.271 82.3451 234.309 82.3503V83.0858C234.278 83.0772 234.223 83.0678 234.145 83.0575C234.066 83.0455 233.987 83.0395 233.908 83.0395C233.726 83.0395 233.564 83.078 233.422 83.1552C233.281 83.2306 233.17 83.3361 233.088 83.4715C233.005 83.6052 232.964 83.7578 232.964 83.9293V86.3414H232.195Z" fill="#E9E9E9"/>
</svg>
