<svg width="95" height="30" viewBox="0 0 95 30" fill="none" xmlns="http://www.w3.org/2000/svg">
<path d="M17.6191 4.93756C20.0308 4.93775 21.9863 6.89302 21.9863 9.30475V21.1153C21.9863 23.527 20.0308 25.4823 17.6191 25.4825H4.667C2.25519 25.4825 0.299869 23.5271 0.299812 21.1153V9.30475C0.299812 6.8929 2.25515 4.93756 4.667 4.93756H17.6191ZM7.9336 8.3653C6.12471 8.3653 4.65821 9.8318 4.65821 11.6407V18.7794C4.65821 20.5882 6.12471 22.0548 7.9336 22.0548H14.3516C16.1605 22.0548 17.627 20.5882 17.627 18.7794V11.6407C17.627 9.8318 16.1605 8.3653 14.3516 8.3653H7.9336Z" fill="#0063F8"/>
<path d="M28.7765 22.8805V7.22907H31.1913V20.6893H38.7264V22.8805H28.7765ZM44.069 22.8805V7.22907H48.608L52.0289 21.2707H52.3867L55.8076 7.22907H60.3466V22.8805H57.9988V8.92837H57.6411L54.2425 22.8805H50.1731L46.7745 8.92837H46.4168V22.8805H44.069ZM72.0633 23.1936C70.8857 23.1936 69.8423 22.9849 68.933 22.5675C68.0238 22.1501 67.3083 21.539 66.7865 20.7341C66.2797 19.9142 66.0263 18.923 66.0263 17.7603V17.2013H68.4188V17.7603C68.4188 18.8633 68.7467 19.6906 69.4026 20.2421C70.0734 20.7937 70.9603 21.0694 72.0633 21.0694C73.1813 21.0694 74.0235 20.8384 74.5899 20.3763C75.1564 19.8993 75.4396 19.2882 75.4396 18.5428C75.4396 18.0509 75.3054 17.6485 75.0371 17.3354C74.7688 17.0224 74.3887 16.7765 73.8968 16.5976C73.4049 16.4038 72.8161 16.2249 72.1304 16.061L71.3031 15.8597C70.3044 15.6212 69.4324 15.3306 68.6871 14.9877C67.9567 14.63 67.3902 14.1604 66.9878 13.5791C66.5853 12.9978 66.3841 12.2524 66.3841 11.3432C66.3841 10.419 66.6077 9.62896 67.0549 8.97309C67.5169 8.31722 68.1505 7.81041 68.9554 7.45266C69.7603 7.09491 70.7069 6.91604 71.795 6.91604C72.8832 6.91604 73.8521 7.10237 74.7017 7.47502C75.5663 7.84767 76.2445 8.3992 76.7364 9.12961C77.2283 9.86001 77.4743 10.7767 77.4743 11.8798V12.6847H75.0818V11.8798C75.0818 11.209 74.9402 10.6649 74.657 10.2476C74.3887 9.83019 74.0086 9.52462 73.5167 9.33084C73.0248 9.13706 72.4509 9.04017 71.795 9.04017C70.841 9.04017 70.0957 9.2414 69.5591 9.64387C69.0374 10.0314 68.7765 10.5755 68.7765 11.2761C68.7765 11.7531 68.8883 12.1481 69.1119 12.4611C69.3504 12.7593 69.6932 13.0052 70.1404 13.199C70.5876 13.3928 71.1466 13.5642 71.8174 13.7132L72.6447 13.9145C73.6583 14.1381 74.5527 14.4287 75.3278 14.7865C76.1029 15.1293 76.7141 15.5989 77.1612 16.1951C77.6084 16.7914 77.832 17.559 77.832 18.4981C77.832 19.4372 77.5935 20.2571 77.1165 20.9576C76.6544 21.6582 75.9911 22.2098 75.1265 22.6122C74.262 22.9998 73.2409 23.1936 72.0633 23.1936ZM82.8712 12.8636V11.4326H84.7047L86.2698 11.6786L86.3816 11.4102L85.1071 10.4712L83.8103 9.17432L84.8165 8.16816L86.1133 9.44263L87.0524 10.7395L87.3207 10.6277L87.0748 9.04017V7.22907H88.5058V9.04017L88.2598 10.6277L88.5281 10.7395L89.4672 9.44263L90.764 8.16816L91.7702 9.17432L90.4957 10.4712L89.1989 11.4102L89.3107 11.6786L90.8758 11.4326H92.7093V12.8636H90.8758L89.3107 12.6176L89.1989 12.886L90.4957 13.825L91.7702 15.1219L90.764 16.128L89.4672 14.8312L88.5281 13.5344L88.2598 13.6462L88.5058 15.2337V17.0448H87.0748V15.2337L87.3207 13.6462L87.0524 13.5344L86.1133 14.8312L84.8165 16.128L83.8103 15.1219L85.1071 13.825L86.3816 12.886L86.2698 12.6176L84.7047 12.8636H82.8712Z" fill="#060606"/>
</svg>
