<svg width="206" height="218" viewBox="0 0 206 218" fill="none" xmlns="http://www.w3.org/2000/svg">
<rect x="1.18872" y="0.868038" width="204.142" height="216.234" rx="8.17989" stroke="#E5E7E9" stroke-width="0.711295"/>
<path d="M145.964 135.193C147.843 136.374 150.337 135.829 151.399 133.881C155.461 126.434 157.729 118.142 158.001 109.653C158.317 99.8306 155.949 90.1055 151.147 81.4973C146.345 72.8891 139.285 65.7149 130.708 60.7271C122.13 55.7393 112.351 53.1216 102.397 53.1484C92.4418 53.1753 82.6776 55.8457 74.128 60.8798C65.5784 65.9138 58.5584 73.1259 53.8039 81.7599C49.0495 90.3939 46.7358 100.132 47.1055 109.952C47.4251 118.44 49.7392 126.72 53.8419 134.145C54.9152 136.087 57.4118 136.618 59.2845 135.427C61.1884 134.217 61.7195 131.691 60.6574 129.7C57.3593 123.519 55.4984 116.67 55.2342 109.654C54.9187 101.273 56.8931 92.9632 60.9505 85.5951C65.0079 78.2269 70.9987 72.0722 78.2948 67.7762C85.591 63.4803 93.9235 61.2013 102.419 61.1784C110.914 61.1555 119.259 63.3894 126.579 67.6459C133.899 71.9025 139.924 78.0248 144.022 85.3709C148.12 92.717 150.14 101.016 149.871 109.399C149.646 116.416 147.823 123.275 144.559 129.473C143.508 131.47 144.053 133.993 145.964 135.193Z" fill="#E6F0FF"/>
<rect x="12.2137" y="16.2029" width="11.3807" height="11.3807" rx="2.84518" fill="#0063F8"/>
<path d="M30.4155 19.8932H29.4837L31.5775 14.0751H32.5917L34.6854 19.8932H33.7536L32.1087 15.1319H32.0633L30.4155 19.8932ZM30.5718 17.6148H33.5945V18.3535H30.5718V17.6148ZM38.6961 16.595L37.9262 16.7313C37.894 16.6328 37.8429 16.5391 37.7728 16.4501C37.7046 16.3611 37.6118 16.2881 37.4944 16.2313C37.3769 16.1745 37.2302 16.1461 37.054 16.1461C36.8135 16.1461 36.6127 16.2001 36.4518 16.308C36.2908 16.4141 36.2103 16.5514 36.2103 16.72C36.2103 16.8658 36.2643 16.9832 36.3722 17.0722C36.4802 17.1612 36.6544 17.2342 36.8949 17.291L37.5881 17.4501C37.9896 17.5429 38.2889 17.6859 38.4858 17.879C38.6828 18.0722 38.7813 18.3232 38.7813 18.6319C38.7813 18.8932 38.7055 19.1262 38.554 19.3307C38.4044 19.5334 38.1951 19.6925 37.9262 19.808C37.6591 19.9236 37.3495 19.9813 36.9972 19.9813C36.5086 19.9813 36.1099 19.8772 35.8012 19.6688C35.4925 19.4586 35.3031 19.1603 35.233 18.7739L36.054 18.6489C36.1052 18.8629 36.2103 19.0249 36.3694 19.1347C36.5285 19.2427 36.7358 19.2967 36.9915 19.2967C37.2699 19.2967 37.4925 19.2389 37.6591 19.1234C37.8258 19.0059 37.9091 18.8629 37.9091 18.6944C37.9091 18.558 37.858 18.4434 37.7557 18.3506C37.6554 18.2578 37.501 18.1878 37.2927 18.1404L36.554 17.9785C36.1468 17.8857 35.8457 17.7379 35.6506 17.5353C35.4574 17.3326 35.3608 17.076 35.3608 16.7654C35.3608 16.5078 35.4328 16.2825 35.5768 16.0893C35.7207 15.8961 35.9196 15.7455 36.1733 15.6376C36.4271 15.5277 36.7179 15.4728 37.0455 15.4728C37.5171 15.4728 37.8883 15.5751 38.1591 15.7796C38.43 15.9823 38.609 16.254 38.6961 16.595ZM42.9851 16.595L42.2152 16.7313C42.1831 16.6328 42.1319 16.5391 42.0618 16.4501C41.9937 16.3611 41.9009 16.2881 41.7834 16.2313C41.666 16.1745 41.5192 16.1461 41.3431 16.1461C41.1026 16.1461 40.9018 16.2001 40.7408 16.308C40.5798 16.4141 40.4993 16.5514 40.4993 16.72C40.4993 16.8658 40.5533 16.9832 40.6613 17.0722C40.7692 17.1612 40.9435 17.2342 41.184 17.291L41.8772 17.4501C42.2787 17.5429 42.5779 17.6859 42.7749 17.879C42.9719 18.0722 43.0704 18.3232 43.0704 18.6319C43.0704 18.8932 42.9946 19.1262 42.8431 19.3307C42.6935 19.5334 42.4842 19.6925 42.2152 19.808C41.9482 19.9236 41.6385 19.9813 41.2863 19.9813C40.7976 19.9813 40.399 19.8772 40.0902 19.6688C39.7815 19.4586 39.5921 19.1603 39.5221 18.7739L40.3431 18.6489C40.3942 18.8629 40.4993 19.0249 40.6584 19.1347C40.8175 19.2427 41.0249 19.2967 41.2806 19.2967C41.559 19.2967 41.7815 19.2389 41.9482 19.1234C42.1149 19.0059 42.1982 18.8629 42.1982 18.6944C42.1982 18.558 42.1471 18.4434 42.0448 18.3506C41.9444 18.2578 41.7901 18.1878 41.5817 18.1404L40.8431 17.9785C40.4359 17.8857 40.1348 17.7379 39.9397 17.5353C39.7465 17.3326 39.6499 17.076 39.6499 16.7654C39.6499 16.5078 39.7219 16.2825 39.8658 16.0893C40.0098 15.8961 40.2086 15.7455 40.4624 15.6376C40.7162 15.5277 41.0069 15.4728 41.3346 15.4728C41.8062 15.4728 42.1774 15.5751 42.4482 15.7796C42.719 15.9823 42.898 16.254 42.9851 16.595ZM44.0043 19.8932V15.5296H44.8537V19.8932H44.0043ZM44.4333 14.8563C44.2856 14.8563 44.1587 14.8071 44.0526 14.7086C43.9484 14.6082 43.8964 14.4889 43.8964 14.3506C43.8964 14.2105 43.9484 14.0912 44.0526 13.9927C44.1587 13.8923 44.2856 13.8421 44.4333 13.8421C44.581 13.8421 44.707 13.8923 44.8111 13.9927C44.9172 14.0912 44.9702 14.2105 44.9702 14.3506C44.9702 14.4889 44.9172 14.6082 44.8111 14.7086C44.707 14.8071 44.581 14.8563 44.4333 14.8563ZM47.826 21.6205C47.4795 21.6205 47.1812 21.5751 46.9312 21.4842C46.6831 21.3932 46.4804 21.273 46.3232 21.1234C46.166 20.9737 46.0486 20.8099 45.9709 20.6319L46.701 20.3307C46.7522 20.4141 46.8204 20.5022 46.9056 20.595C46.9927 20.6897 47.1101 20.7701 47.2579 20.8364C47.4075 20.9027 47.5997 20.9359 47.8346 20.9359C48.1565 20.9359 48.4226 20.8573 48.6329 20.7001C48.8431 20.5448 48.9482 20.2967 48.9482 19.9557V19.0978H48.8942C48.8431 19.1906 48.7692 19.2938 48.6726 19.4075C48.5779 19.5211 48.4473 19.6196 48.2806 19.7029C48.1139 19.7862 47.8971 19.8279 47.63 19.8279C47.2853 19.8279 46.9747 19.7474 46.6982 19.5864C46.4236 19.4236 46.2058 19.184 46.0448 18.8677C45.8857 18.5495 45.8062 18.1584 45.8062 17.6944C45.8062 17.2304 45.8848 16.8326 46.042 16.5012C46.201 16.1698 46.4188 15.916 46.6954 15.7398C46.9719 15.5618 47.2853 15.4728 47.6357 15.4728C47.9065 15.4728 48.1253 15.5182 48.292 15.6092C48.4586 15.6982 48.5884 15.8023 48.6812 15.9217C48.7759 16.041 48.8488 16.1461 48.8999 16.237H48.9624V15.5296H49.7948V19.9898C49.7948 20.3648 49.7077 20.6726 49.5334 20.9131C49.3592 21.1537 49.1234 21.3317 48.826 21.4472C48.5306 21.5628 48.1973 21.6205 47.826 21.6205ZM47.8175 19.1234C48.0618 19.1234 48.2683 19.0665 48.4368 18.9529C48.6073 18.8374 48.7361 18.6726 48.8232 18.4586C48.9122 18.2427 48.9567 17.9842 48.9567 17.683C48.9567 17.3895 48.9132 17.1309 48.826 16.9075C48.7389 16.684 48.6111 16.5097 48.4425 16.3847C48.274 16.2578 48.0656 16.1944 47.8175 16.1944C47.5618 16.1944 47.3488 16.2607 47.1783 16.3932C47.0079 16.5239 46.8791 16.702 46.792 16.9273C46.7067 17.1527 46.6641 17.4046 46.6641 17.683C46.6641 17.969 46.7077 18.22 46.7948 18.4359C46.8819 18.6518 47.0107 18.8203 47.1812 18.9415C47.3535 19.0628 47.5656 19.1234 47.8175 19.1234ZM51.7834 17.3023V19.8932H50.934V15.5296H51.7493V16.2398H51.8033C51.9037 16.0088 52.0609 15.8232 52.2749 15.683C52.4908 15.5429 52.7626 15.4728 53.0902 15.4728C53.3876 15.4728 53.648 15.5353 53.8715 15.6603C54.095 15.7834 54.2683 15.9671 54.3914 16.2114C54.5145 16.4557 54.576 16.7578 54.576 17.1177V19.8932H53.7266V17.22C53.7266 16.9037 53.6442 16.6565 53.4795 16.4785C53.3147 16.2986 53.0884 16.2086 52.8005 16.2086C52.6035 16.2086 52.4283 16.2512 52.2749 16.3364C52.1234 16.4217 52.0031 16.5467 51.9141 16.7114C51.827 16.8743 51.7834 17.0713 51.7834 17.3023ZM55.7152 19.8932V15.5296H56.5306V16.2398H56.5846C56.6755 15.9993 56.8242 15.8118 57.0306 15.6773C57.237 15.541 57.4842 15.4728 57.7721 15.4728C58.0637 15.4728 58.3081 15.541 58.505 15.6773C58.7039 15.8137 58.8507 16.0012 58.9454 16.2398H58.9908C59.095 16.0069 59.2607 15.8213 59.488 15.683C59.7152 15.5429 59.9861 15.4728 60.3005 15.4728C60.6963 15.4728 61.0192 15.5968 61.2692 15.845C61.5211 16.0931 61.6471 16.4671 61.6471 16.9671V19.8932H60.7976V17.0467C60.7976 16.7512 60.7171 16.5372 60.5562 16.4046C60.3952 16.272 60.2029 16.2057 59.9795 16.2057C59.7029 16.2057 59.488 16.291 59.3346 16.4614C59.1812 16.63 59.1045 16.8468 59.1045 17.112V19.8932H58.2579V16.9927C58.2579 16.7559 58.184 16.5656 58.0363 16.4217C57.8885 16.2777 57.6963 16.2057 57.4596 16.2057C57.2986 16.2057 57.1499 16.2484 57.0135 16.3336C56.8791 16.4169 56.7702 16.5334 56.6868 16.683C56.6054 16.8326 56.5647 17.0059 56.5647 17.2029V19.8932H55.7152ZM64.6662 19.9813C64.2363 19.9813 63.8661 19.8895 63.5554 19.7057C63.2467 19.5201 63.0081 19.2597 62.8395 18.9245C62.6729 18.5874 62.5895 18.1925 62.5895 17.7398C62.5895 17.2929 62.6729 16.8989 62.8395 16.558C63.0081 16.2171 63.2429 15.951 63.5441 15.7597C63.8471 15.5684 64.2013 15.4728 64.6066 15.4728C64.8528 15.4728 65.0914 15.5135 65.3225 15.595C65.5536 15.6764 65.7609 15.8042 65.9447 15.9785C66.1284 16.1527 66.2733 16.379 66.3793 16.6575C66.4854 16.934 66.5384 17.2701 66.5384 17.666V17.9671H63.0697V17.3307H65.706C65.706 17.1073 65.6606 16.9093 65.5697 16.737C65.4787 16.5628 65.3509 16.4254 65.1861 16.3251C65.0233 16.2247 64.832 16.1745 64.6123 16.1745C64.3736 16.1745 64.1653 16.2332 63.9873 16.3506C63.8111 16.4662 63.6748 16.6177 63.5782 16.8052C63.4835 16.9908 63.4361 17.1925 63.4361 17.4103V17.9075C63.4361 18.1991 63.4873 18.4472 63.5895 18.6518C63.6937 18.8563 63.8386 19.0126 64.0242 19.1205C64.2098 19.2266 64.4267 19.2796 64.6748 19.2796C64.8358 19.2796 64.9825 19.2569 65.1151 19.2114C65.2477 19.1641 65.3623 19.094 65.4589 19.0012C65.5554 18.9084 65.6293 18.7938 65.6804 18.6575L66.4844 18.8023C66.42 19.0391 66.3045 19.2465 66.1378 19.4245C65.9731 19.6006 65.7657 19.7379 65.5157 19.8364C65.2676 19.933 64.9844 19.9813 64.6662 19.9813ZM68.3303 17.3023V19.8932H67.4809V15.5296H68.2962V16.2398H68.3502C68.4506 16.0088 68.6078 15.8232 68.8218 15.683C69.0377 15.5429 69.3095 15.4728 69.6371 15.4728C69.9345 15.4728 70.1949 15.5353 70.4184 15.6603C70.6419 15.7834 70.8152 15.9671 70.9383 16.2114C71.0614 16.4557 71.1229 16.7578 71.1229 17.1177V19.8932H70.2735V17.22C70.2735 16.9037 70.1911 16.6565 70.0263 16.4785C69.8616 16.2986 69.6352 16.2086 69.3474 16.2086C69.1504 16.2086 68.9752 16.2512 68.8218 16.3364C68.6703 16.4217 68.55 16.5467 68.461 16.7114C68.3739 16.8743 68.3303 17.0713 68.3303 17.3023ZM74.2991 15.5296V16.2114H71.9155V15.5296H74.2991ZM72.5547 14.4842H73.4042V18.612C73.4042 18.7768 73.4288 18.9008 73.478 18.9842C73.5273 19.0656 73.5907 19.1215 73.6684 19.1518C73.7479 19.1802 73.8341 19.1944 73.9269 19.1944C73.9951 19.1944 74.0547 19.1897 74.1059 19.1802C74.157 19.1707 74.1968 19.1631 74.2252 19.1575L74.3786 19.8592C74.3294 19.8781 74.2593 19.897 74.1684 19.916C74.0775 19.9368 73.9638 19.9482 73.8275 19.9501C73.604 19.9539 73.3956 19.9141 73.2025 19.8307C73.0093 19.7474 72.853 19.6186 72.7337 19.4444C72.6144 19.2701 72.5547 19.0514 72.5547 18.7881V14.4842ZM80.5974 15.6035C80.567 15.3345 80.442 15.1262 80.2224 14.9785C80.0027 14.8289 79.7261 14.754 79.3928 14.754C79.1542 14.754 78.9477 14.7919 78.7735 14.8677C78.5992 14.9415 78.4638 15.0438 78.3672 15.1745C78.2725 15.3033 78.2252 15.4501 78.2252 15.6148C78.2252 15.7531 78.2574 15.8724 78.3218 15.9728C78.3881 16.0732 78.4742 16.1575 78.5803 16.2256C78.6883 16.2919 78.8038 16.3478 78.9269 16.3932C79.05 16.4368 79.1684 16.4728 79.282 16.5012L79.8502 16.6489C80.0358 16.6944 80.2261 16.7559 80.4212 16.8336C80.6163 16.9112 80.7972 17.0135 80.9638 17.1404C81.1305 17.2673 81.265 17.4245 81.3672 17.612C81.4714 17.7995 81.5235 18.0239 81.5235 18.2853C81.5235 18.6148 81.4383 18.9075 81.2678 19.1631C81.0992 19.4188 80.854 19.6205 80.532 19.7682C80.2119 19.916 79.8246 19.9898 79.3701 19.9898C78.9345 19.9898 78.5576 19.9207 78.2394 19.7825C77.9212 19.6442 77.6722 19.4482 77.4922 19.1944C77.3123 18.9387 77.2129 18.6357 77.1939 18.2853H78.0746C78.0917 18.4955 78.1599 18.6707 78.2792 18.8109C78.4004 18.9491 78.5547 19.0523 78.7422 19.1205C78.9316 19.1868 79.139 19.22 79.3644 19.22C79.6125 19.22 79.8331 19.1811 80.0263 19.1035C80.2214 19.0239 80.3748 18.9141 80.4866 18.7739C80.5983 18.6319 80.6542 18.4662 80.6542 18.2768C80.6542 18.1044 80.6049 17.9633 80.5064 17.8535C80.4099 17.7436 80.2782 17.6527 80.1116 17.5807C79.9468 17.5088 79.7602 17.4453 79.5519 17.3904L78.8644 17.2029C78.3985 17.076 78.0292 16.8895 77.7564 16.6432C77.4856 16.397 77.3502 16.0713 77.3502 15.666C77.3502 15.3307 77.4411 15.0381 77.6229 14.7881C77.8047 14.5381 78.0509 14.344 78.3616 14.2057C78.6722 14.0656 79.0225 13.9955 79.4127 13.9955C79.8066 13.9955 80.1542 14.0647 80.4553 14.2029C80.7583 14.3412 80.997 14.5315 81.1712 14.7739C81.3455 15.0145 81.4364 15.291 81.4439 15.6035H80.5974ZM85.2685 18.0836V15.5296H86.1208V19.8932H85.2856V19.1376H85.2401C85.1397 19.3705 84.9787 19.5647 84.7572 19.72C84.5375 19.8734 84.2638 19.9501 83.9361 19.9501C83.6558 19.9501 83.4077 19.8885 83.1918 19.7654C82.9778 19.6404 82.8092 19.4557 82.6861 19.2114C82.5649 18.9671 82.5043 18.665 82.5043 18.3052V15.5296H83.3537V18.2029C83.3537 18.5003 83.4361 18.737 83.6009 18.9131C83.7657 19.0893 83.9797 19.1773 84.2429 19.1773C84.402 19.1773 84.5602 19.1376 84.7174 19.058C84.8765 18.9785 85.0081 18.8582 85.1123 18.6972C85.2183 18.5362 85.2704 18.3317 85.2685 18.0836ZM87.3303 19.8932V14.0751H88.1797V16.237H88.2309C88.2801 16.1461 88.3511 16.041 88.4439 15.9217C88.5367 15.8023 88.6655 15.6982 88.8303 15.6092C88.9951 15.5182 89.2129 15.4728 89.4837 15.4728C89.836 15.4728 90.1504 15.5618 90.4269 15.7398C90.7034 15.9179 90.9203 16.1745 91.0775 16.5097C91.2366 16.845 91.3161 17.2484 91.3161 17.72C91.3161 18.1915 91.2375 18.5959 91.0803 18.933C90.9231 19.2682 90.7072 19.5268 90.4326 19.7086C90.158 19.8885 89.8445 19.9785 89.4922 19.9785C89.2271 19.9785 89.0102 19.934 88.8417 19.845C88.675 19.7559 88.5443 19.6518 88.4496 19.5325C88.3549 19.4131 88.282 19.3071 88.2309 19.2143H88.1599V19.8932H87.3303ZM88.1627 17.7114C88.1627 18.0182 88.2072 18.2872 88.2962 18.5182C88.3852 18.7493 88.514 18.9302 88.6826 19.0609C88.8511 19.1897 89.0576 19.254 89.3019 19.254C89.5557 19.254 89.7678 19.1868 89.9383 19.0523C90.1087 18.916 90.2375 18.7313 90.3246 18.4984C90.4136 18.2654 90.4581 18.0031 90.4581 17.7114C90.4581 17.4236 90.4146 17.165 90.3275 16.9359C90.2422 16.7067 90.1134 16.5258 89.9411 16.3932C89.7706 16.2607 89.5576 16.1944 89.3019 16.1944C89.0557 16.1944 88.8474 16.2578 88.6769 16.3847C88.5083 16.5116 88.3805 16.6887 88.2934 16.916C88.2063 17.1432 88.1627 17.4084 88.1627 17.7114ZM92.2699 19.8932V15.5296H93.0853V16.2398H93.1393C93.2302 15.9993 93.3788 15.8118 93.5853 15.6773C93.7917 15.541 94.0389 15.4728 94.3268 15.4728C94.6184 15.4728 94.8627 15.541 95.0597 15.6773C95.2586 15.8137 95.4054 16.0012 95.5001 16.2398H95.5455C95.6497 16.0069 95.8154 15.8213 96.0427 15.683C96.2699 15.5429 96.5408 15.4728 96.8552 15.4728C97.251 15.4728 97.5739 15.5968 97.8239 15.845C98.0758 16.0931 98.2018 16.4671 98.2018 16.9671V19.8932H97.3523V17.0467C97.3523 16.7512 97.2718 16.5372 97.1108 16.4046C96.9499 16.272 96.7576 16.2057 96.5341 16.2057C96.2576 16.2057 96.0427 16.291 95.8893 16.4614C95.7358 16.63 95.6591 16.8468 95.6591 17.112V19.8932H94.8126V16.9927C94.8126 16.7559 94.7387 16.5656 94.591 16.4217C94.4432 16.2777 94.251 16.2057 94.0143 16.2057C93.8533 16.2057 93.7046 16.2484 93.5682 16.3336C93.4338 16.4169 93.3249 16.5334 93.2415 16.683C93.1601 16.8326 93.1194 17.0059 93.1194 17.2029V19.8932H92.2699ZM99.3402 19.8932V15.5296H100.19V19.8932H99.3402ZM99.7692 14.8563C99.6215 14.8563 99.4946 14.8071 99.3885 14.7086C99.2844 14.6082 99.2323 14.4889 99.2323 14.3506C99.2323 14.2105 99.2844 14.0912 99.3885 13.9927C99.4946 13.8923 99.6215 13.8421 99.7692 13.8421C99.917 13.8421 100.043 13.8923 100.147 13.9927C100.253 14.0912 100.306 14.2105 100.306 14.3506C100.306 14.4889 100.253 14.6082 100.147 14.7086C100.043 14.8071 99.917 14.8563 99.7692 14.8563ZM104.602 16.595L103.832 16.7313C103.8 16.6328 103.749 16.5391 103.679 16.4501C103.611 16.3611 103.518 16.2881 103.401 16.2313C103.283 16.1745 103.136 16.1461 102.96 16.1461C102.72 16.1461 102.519 16.2001 102.358 16.308C102.197 16.4141 102.117 16.5514 102.117 16.72C102.117 16.8658 102.171 16.9832 102.278 17.0722C102.386 17.1612 102.561 17.2342 102.801 17.291L103.494 17.4501C103.896 17.5429 104.195 17.6859 104.392 17.879C104.589 18.0722 104.688 18.3232 104.688 18.6319C104.688 18.8932 104.612 19.1262 104.46 19.3307C104.311 19.5334 104.101 19.6925 103.832 19.808C103.565 19.9236 103.256 19.9813 102.903 19.9813C102.415 19.9813 102.016 19.8772 101.707 19.6688C101.399 19.4586 101.209 19.1603 101.139 18.7739L101.96 18.6489C102.011 18.8629 102.117 19.0249 102.276 19.1347C102.435 19.2427 102.642 19.2967 102.898 19.2967C103.176 19.2967 103.399 19.2389 103.565 19.1234C103.732 19.0059 103.815 18.8629 103.815 18.6944C103.815 18.558 103.764 18.4434 103.662 18.3506C103.562 18.2578 103.407 18.1878 103.199 18.1404L102.46 17.9785C102.053 17.8857 101.752 17.7379 101.557 17.5353C101.364 17.3326 101.267 17.076 101.267 16.7654C101.267 16.5078 101.339 16.2825 101.483 16.0893C101.627 15.8961 101.826 15.7455 102.08 15.6376C102.333 15.5277 102.624 15.4728 102.952 15.4728C103.423 15.4728 103.795 15.5751 104.065 15.7796C104.336 15.9823 104.515 16.254 104.602 16.595ZM108.891 16.595L108.121 16.7313C108.089 16.6328 108.038 16.5391 107.968 16.4501C107.9 16.3611 107.807 16.2881 107.69 16.2313C107.572 16.1745 107.425 16.1461 107.249 16.1461C107.009 16.1461 106.808 16.2001 106.647 16.308C106.486 16.4141 106.406 16.5514 106.406 16.72C106.406 16.8658 106.46 16.9832 106.568 17.0722C106.675 17.1612 106.85 17.2342 107.09 17.291L107.783 17.4501C108.185 17.5429 108.484 17.6859 108.681 17.879C108.878 18.0722 108.977 18.3232 108.977 18.6319C108.977 18.8932 108.901 19.1262 108.749 19.3307C108.6 19.5334 108.39 19.6925 108.121 19.808C107.854 19.9236 107.545 19.9813 107.193 19.9813C106.704 19.9813 106.305 19.8772 105.996 19.6688C105.688 19.4586 105.498 19.1603 105.428 18.7739L106.249 18.6489C106.3 18.8629 106.406 19.0249 106.565 19.1347C106.724 19.2427 106.931 19.2967 107.187 19.2967C107.465 19.2967 107.688 19.2389 107.854 19.1234C108.021 19.0059 108.104 18.8629 108.104 18.6944C108.104 18.558 108.053 18.4434 107.951 18.3506C107.851 18.2578 107.696 18.1878 107.488 18.1404L106.749 17.9785C106.342 17.8857 106.041 17.7379 105.846 17.5353C105.653 17.3326 105.556 17.076 105.556 16.7654C105.556 16.5078 105.628 16.2825 105.772 16.0893C105.916 15.8961 106.115 15.7455 106.369 15.6376C106.622 15.5277 106.913 15.4728 107.241 15.4728C107.712 15.4728 108.084 15.5751 108.354 15.7796C108.625 15.9823 108.804 16.254 108.891 16.595ZM109.911 19.8932V15.5296H110.76V19.8932H109.911ZM110.34 14.8563C110.192 14.8563 110.065 14.8071 109.959 14.7086C109.855 14.6082 109.803 14.4889 109.803 14.3506C109.803 14.2105 109.855 14.0912 109.959 13.9927C110.065 13.8923 110.192 13.8421 110.34 13.8421C110.487 13.8421 110.613 13.8923 110.717 13.9927C110.823 14.0912 110.876 14.2105 110.876 14.3506C110.876 14.4889 110.823 14.6082 110.717 14.7086C110.613 14.8071 110.487 14.8563 110.34 14.8563ZM113.741 19.9813C113.332 19.9813 112.975 19.8876 112.67 19.7001C112.365 19.5126 112.128 19.2503 111.96 18.9131C111.791 18.576 111.707 18.1821 111.707 17.7313C111.707 17.2787 111.791 16.8828 111.96 16.5438C112.128 16.2048 112.365 15.9415 112.67 15.754C112.975 15.5665 113.332 15.4728 113.741 15.4728C114.15 15.4728 114.507 15.5665 114.812 15.754C115.117 15.9415 115.354 16.2048 115.522 16.5438C115.691 16.8828 115.775 17.2787 115.775 17.7313C115.775 18.1821 115.691 18.576 115.522 18.9131C115.354 19.2503 115.117 19.5126 114.812 19.7001C114.507 19.8876 114.15 19.9813 113.741 19.9813ZM113.744 19.2682C114.009 19.2682 114.229 19.1982 114.403 19.058C114.577 18.9179 114.706 18.7313 114.789 18.4984C114.874 18.2654 114.917 18.0088 114.917 17.7285C114.917 17.4501 114.874 17.1944 114.789 16.9614C114.706 16.7266 114.577 16.5381 114.403 16.3961C114.229 16.254 114.009 16.183 113.744 16.183C113.477 16.183 113.255 16.254 113.079 16.3961C112.905 16.5381 112.775 16.7266 112.69 16.9614C112.606 17.1944 112.565 17.4501 112.565 17.7285C112.565 18.0088 112.606 18.2654 112.69 18.4984C112.775 18.7313 112.905 18.9179 113.079 19.058C113.255 19.1982 113.477 19.2682 113.744 19.2682ZM117.572 17.3023V19.8932H116.723V15.5296H117.538V16.2398H117.592C117.693 16.0088 117.85 15.8232 118.064 15.683C118.28 15.5429 118.552 15.4728 118.879 15.4728C119.177 15.4728 119.437 15.5353 119.661 15.6603C119.884 15.7834 120.057 15.9671 120.18 16.2114C120.304 16.4557 120.365 16.7578 120.365 17.1177V19.8932H119.516V17.22C119.516 16.9037 119.433 16.6565 119.269 16.4785C119.104 16.2986 118.877 16.2086 118.59 16.2086C118.393 16.2086 118.217 16.2512 118.064 16.3364C117.912 16.4217 117.792 16.5467 117.703 16.7114C117.616 16.8743 117.572 17.0713 117.572 17.3023ZM29.9241 29.8932V24.0751H31.9979C32.4506 24.0751 32.8256 24.1575 33.1229 24.3222C33.4203 24.487 33.6428 24.7124 33.7905 24.9984C33.9383 25.2825 34.0121 25.6025 34.0121 25.9586C34.0121 26.3165 33.9373 26.6385 33.7877 26.9245C33.64 27.2086 33.4165 27.434 33.1172 27.6006C32.8199 27.7654 32.4458 27.8478 31.9951 27.8478H30.5689V27.1035H31.9155C32.2015 27.1035 32.4335 27.0542 32.6116 26.9557C32.7896 26.8554 32.9203 26.719 33.0036 26.5467C33.0869 26.3743 33.1286 26.1783 33.1286 25.9586C33.1286 25.7389 33.0869 25.5438 33.0036 25.3734C32.9203 25.2029 32.7886 25.0694 32.6087 24.9728C32.4307 24.8762 32.1958 24.8279 31.9042 24.8279H30.8019V29.8932H29.9241ZM36.7991 29.9813C36.3691 29.9813 35.9989 29.8895 35.6883 29.7057C35.3795 29.5201 35.1409 29.2597 34.9724 28.9245C34.8057 28.5874 34.7224 28.1925 34.7224 27.7398C34.7224 27.2929 34.8057 26.8989 34.9724 26.558C35.1409 26.2171 35.3758 25.951 35.6769 25.7597C35.9799 25.5684 36.3341 25.4728 36.7394 25.4728C36.9856 25.4728 37.2242 25.5135 37.4553 25.595C37.6864 25.6764 37.8938 25.8042 38.0775 25.9785C38.2612 26.1527 38.4061 26.379 38.5121 26.6575C38.6182 26.934 38.6712 27.2701 38.6712 27.666V27.9671H35.2025V27.3307H37.8388C37.8388 27.1073 37.7934 26.9093 37.7025 26.737C37.6116 26.5628 37.4837 26.4254 37.3189 26.3251C37.1561 26.2247 36.9648 26.1745 36.7451 26.1745C36.5064 26.1745 36.2981 26.2332 36.1201 26.3506C35.9439 26.4662 35.8076 26.6177 35.711 26.8052C35.6163 26.9908 35.5689 27.1925 35.5689 27.4103V27.9075C35.5689 28.1991 35.6201 28.4472 35.7224 28.6518C35.8265 28.8563 35.9714 29.0126 36.157 29.1205C36.3426 29.2266 36.5595 29.2796 36.8076 29.2796C36.9686 29.2796 37.1153 29.2569 37.2479 29.2114C37.3805 29.1641 37.4951 29.094 37.5917 29.0012C37.6883 28.9084 37.7621 28.7938 37.8133 28.6575L38.6172 28.8023C38.5528 29.0391 38.4373 29.2465 38.2706 29.4245C38.1059 29.6006 37.8985 29.7379 37.6485 29.8364C37.4004 29.933 37.1172 29.9813 36.7991 29.9813ZM39.6137 29.8932V25.5296H40.4347V26.2228H40.4802C40.5597 25.9879 40.6999 25.8033 40.9006 25.6688C41.1033 25.5325 41.3324 25.4643 41.5881 25.4643C41.6411 25.4643 41.7036 25.4662 41.7756 25.47C41.8495 25.4737 41.9072 25.4785 41.9489 25.4842V26.2967C41.9148 26.2872 41.8542 26.2768 41.7671 26.2654C41.68 26.2522 41.5929 26.2455 41.5057 26.2455C41.305 26.2455 41.126 26.2881 40.9688 26.3734C40.8135 26.4567 40.6904 26.5732 40.5995 26.7228C40.5086 26.8705 40.4631 27.0391 40.4631 27.2285V29.8932H39.6137ZM45.0185 25.5296V26.2114H42.5526V25.5296H45.0185ZM43.2287 29.8932V25.0239C43.2287 24.7512 43.2884 24.5249 43.4077 24.345C43.527 24.1631 43.6852 24.0277 43.8822 23.9387C44.0791 23.8478 44.2931 23.8023 44.5242 23.8023C44.6947 23.8023 44.8405 23.8165 44.9617 23.845C45.0829 23.8715 45.1729 23.8961 45.2316 23.9188L45.0327 24.6063C44.9929 24.595 44.9418 24.5817 44.8793 24.5665C44.8168 24.5495 44.7411 24.541 44.652 24.541C44.4456 24.541 44.2979 24.5921 44.2089 24.6944C44.1217 24.7967 44.0782 24.9444 44.0782 25.1376V29.8932H43.2287ZM47.5611 29.9813C47.152 29.9813 46.795 29.8876 46.4901 29.7001C46.1852 29.5126 45.9484 29.2503 45.7799 28.9131C45.6113 28.576 45.527 28.1821 45.527 27.7313C45.527 27.2787 45.6113 26.8828 45.7799 26.5438C45.9484 26.2048 46.1852 25.9415 46.4901 25.754C46.795 25.5665 47.152 25.4728 47.5611 25.4728C47.9702 25.4728 48.3272 25.5665 48.6322 25.754C48.9371 25.9415 49.1738 26.2048 49.3424 26.5438C49.5109 26.8828 49.5952 27.2787 49.5952 27.7313C49.5952 28.1821 49.5109 28.576 49.3424 28.9131C49.1738 29.2503 48.9371 29.5126 48.6322 29.7001C48.3272 29.8876 47.9702 29.9813 47.5611 29.9813ZM47.564 29.2682C47.8291 29.2682 48.0488 29.1982 48.2231 29.058C48.3973 28.9179 48.5261 28.7313 48.6094 28.4984C48.6947 28.2654 48.7373 28.0088 48.7373 27.7285C48.7373 27.4501 48.6947 27.1944 48.6094 26.9614C48.5261 26.7266 48.3973 26.5381 48.2231 26.3961C48.0488 26.254 47.8291 26.183 47.564 26.183C47.2969 26.183 47.0753 26.254 46.8992 26.3961C46.725 26.5381 46.5952 26.7266 46.51 26.9614C46.4267 27.1944 46.385 27.4501 46.385 27.7285C46.385 28.0088 46.4267 28.2654 46.51 28.4984C46.5952 28.7313 46.725 28.9179 46.8992 29.058C47.0753 29.1982 47.2969 29.2682 47.564 29.2682ZM50.5434 29.8932V25.5296H51.3644V26.2228H51.4099C51.4894 25.9879 51.6295 25.8033 51.8303 25.6688C52.033 25.5325 52.2621 25.4643 52.5178 25.4643C52.5708 25.4643 52.6333 25.4662 52.7053 25.47C52.7792 25.4737 52.8369 25.4785 52.8786 25.4842V26.2967C52.8445 26.2872 52.7839 26.2768 52.6968 26.2654C52.6097 26.2522 52.5225 26.2455 52.4354 26.2455C52.2347 26.2455 52.0557 26.2881 51.8985 26.3734C51.7432 26.4567 51.6201 26.5732 51.5292 26.7228C51.4383 26.8705 51.3928 27.0391 51.3928 27.2285V29.8932H50.5434ZM53.6137 29.8932V25.5296H54.429V26.2398H54.483C54.5739 25.9993 54.7226 25.8118 54.929 25.6773C55.1355 25.541 55.3826 25.4728 55.6705 25.4728C55.9622 25.4728 56.2065 25.541 56.4035 25.6773C56.6023 25.8137 56.7491 26.0012 56.8438 26.2398H56.8893C56.9934 26.0069 57.1591 25.8213 57.3864 25.683C57.6137 25.5429 57.8845 25.4728 58.1989 25.4728C58.5947 25.4728 58.9177 25.5968 59.1677 25.845C59.4196 26.0931 59.5455 26.4671 59.5455 26.9671V29.8932H58.6961V27.0467C58.6961 26.7512 58.6156 26.5372 58.4546 26.4046C58.2936 26.272 58.1014 26.2057 57.8779 26.2057C57.6014 26.2057 57.3864 26.291 57.233 26.4614C57.0796 26.63 57.0029 26.8468 57.0029 27.112V29.8932H56.1563V26.9927C56.1563 26.7559 56.0824 26.5656 55.9347 26.4217C55.787 26.2777 55.5947 26.2057 55.358 26.2057C55.197 26.2057 55.0483 26.2484 54.912 26.3336C54.7775 26.4169 54.6686 26.5334 54.5853 26.683C54.5038 26.8326 54.4631 27.0059 54.4631 27.2029V29.8932H53.6137ZM61.9539 29.9898C61.6774 29.9898 61.4274 29.9387 61.2039 29.8364C60.9804 29.7323 60.8033 29.5817 60.6726 29.3847C60.5438 29.1878 60.4795 28.9463 60.4795 28.6603C60.4795 28.4141 60.5268 28.2114 60.6215 28.0523C60.7162 27.8932 60.844 27.7673 61.005 27.6745C61.166 27.5817 61.3459 27.5116 61.5448 27.4643C61.7437 27.4169 61.9463 27.3809 62.1527 27.3563C62.4141 27.326 62.6262 27.3014 62.7891 27.2825C62.952 27.2616 63.0704 27.2285 63.1442 27.183C63.2181 27.1376 63.255 27.0637 63.255 26.9614V26.9415C63.255 26.6934 63.1849 26.5012 63.0448 26.3648C62.9065 26.2285 62.7001 26.1603 62.4255 26.1603C62.1395 26.1603 61.9141 26.2237 61.7493 26.3506C61.5865 26.4756 61.4738 26.6148 61.4113 26.7682L60.613 26.5864C60.7077 26.3213 60.8459 26.1073 61.0277 25.9444C61.2115 25.7796 61.4226 25.6603 61.6613 25.5864C61.8999 25.5107 62.1509 25.4728 62.4141 25.4728C62.5884 25.4728 62.773 25.4936 62.9681 25.5353C63.1651 25.5751 63.3488 25.6489 63.5192 25.7569C63.6916 25.8648 63.8327 26.0192 63.9425 26.22C64.0524 26.4188 64.1073 26.6773 64.1073 26.9955V29.8932H63.2777V29.2967H63.2437C63.1887 29.4065 63.1063 29.5145 62.9965 29.6205C62.8867 29.7266 62.7456 29.8147 62.5732 29.8847C62.4009 29.9548 62.1944 29.9898 61.9539 29.9898ZM62.1385 29.308C62.3734 29.308 62.5742 29.2616 62.7408 29.1688C62.9094 29.076 63.0372 28.9548 63.1243 28.8052C63.2134 28.6537 63.2579 28.4917 63.2579 28.3194V27.7569C63.2276 27.7872 63.1688 27.8156 63.0817 27.8421C62.9965 27.8667 62.899 27.8885 62.7891 27.9075C62.6793 27.9245 62.5723 27.9406 62.4681 27.9557C62.3639 27.969 62.2768 27.9804 62.2067 27.9898C62.042 28.0107 61.8914 28.0457 61.755 28.095C61.6206 28.1442 61.5126 28.2152 61.4312 28.308C61.3516 28.3989 61.3118 28.5201 61.3118 28.6717C61.3118 28.8819 61.3895 29.041 61.5448 29.1489C61.7001 29.255 61.898 29.308 62.1385 29.308ZM66.0881 27.3023V29.8932H65.2387V25.5296H66.054V26.2398H66.108C66.2084 26.0088 66.3656 25.8232 66.5796 25.683C66.7955 25.5429 67.0673 25.4728 67.3949 25.4728C67.6923 25.4728 67.9527 25.5353 68.1762 25.6603C68.3997 25.7834 68.573 25.9671 68.6961 26.2114C68.8192 26.4557 68.8807 26.7578 68.8807 27.1177V29.8932H68.0313V27.22C68.0313 26.9037 67.9489 26.6565 67.7841 26.4785C67.6194 26.2986 67.393 26.2086 67.1052 26.2086C66.9082 26.2086 66.733 26.2512 66.5796 26.3364C66.4281 26.4217 66.3078 26.5467 66.2188 26.7114C66.1317 26.8743 66.0881 27.0713 66.0881 27.3023ZM71.858 29.9813C71.4357 29.9813 71.072 29.8857 70.7671 29.6944C70.4641 29.5012 70.2311 29.2351 70.0682 28.8961C69.9054 28.5571 69.8239 28.1688 69.8239 27.7313C69.8239 27.2881 69.9072 26.897 70.0739 26.558C70.2406 26.2171 70.4754 25.951 70.7785 25.7597C71.0815 25.5684 71.4385 25.4728 71.8495 25.4728C72.1809 25.4728 72.4764 25.5343 72.7358 25.6575C72.9953 25.7787 73.2046 25.9491 73.3637 26.1688C73.5247 26.3885 73.6203 26.6451 73.6506 26.9387H72.8239C72.7785 26.7342 72.6743 26.558 72.5114 26.4103C72.3504 26.2626 72.1345 26.1887 71.8637 26.1887C71.6269 26.1887 71.4196 26.2512 71.2415 26.3762C71.0654 26.4993 70.9281 26.6754 70.8296 26.9046C70.7311 27.1319 70.6819 27.4008 70.6819 27.7114C70.6819 28.0296 70.7302 28.3042 70.8268 28.5353C70.9233 28.7664 71.0597 28.9453 71.2358 29.0722C71.4139 29.1991 71.6232 29.2626 71.8637 29.2626C72.0247 29.2626 72.1705 29.2332 72.3012 29.1745C72.4338 29.1139 72.5446 29.0277 72.6336 28.916C72.7245 28.8042 72.7879 28.6698 72.8239 28.5126H73.6506C73.6203 28.7948 73.5285 29.0467 73.3751 29.2682C73.2216 29.4898 73.0161 29.6641 72.7586 29.791C72.5029 29.9179 72.2027 29.9813 71.858 29.9813ZM76.4397 29.9813C76.0098 29.9813 75.6395 29.8895 75.3289 29.7057C75.0202 29.5201 74.7815 29.2597 74.613 28.9245C74.4463 28.5874 74.363 28.1925 74.363 27.7398C74.363 27.2929 74.4463 26.8989 74.613 26.558C74.7815 26.2171 75.0164 25.951 75.3175 25.7597C75.6206 25.5684 75.9747 25.4728 76.38 25.4728C76.6262 25.4728 76.8649 25.5135 77.0959 25.595C77.327 25.6764 77.5344 25.8042 77.7181 25.9785C77.9018 26.1527 78.0467 26.379 78.1527 26.6575C78.2588 26.934 78.3118 27.2701 78.3118 27.666V27.9671H74.8431V27.3307H77.4795C77.4795 27.1073 77.434 26.9093 77.3431 26.737C77.2522 26.5628 77.1243 26.4254 76.9596 26.3251C76.7967 26.2247 76.6054 26.1745 76.3857 26.1745C76.1471 26.1745 75.9387 26.2332 75.7607 26.3506C75.5846 26.4662 75.4482 26.6177 75.3516 26.8052C75.2569 26.9908 75.2096 27.1925 75.2096 27.4103V27.9075C75.2096 28.1991 75.2607 28.4472 75.363 28.6518C75.4671 28.8563 75.612 29.0126 75.7976 29.1205C75.9832 29.2266 76.2001 29.2796 76.4482 29.2796C76.6092 29.2796 76.756 29.2569 76.8885 29.2114C77.0211 29.1641 77.1357 29.094 77.2323 29.0012C77.3289 28.9084 77.4027 28.7938 77.4539 28.6575L78.2579 28.8023C78.1935 29.0391 78.0779 29.2465 77.9113 29.4245C77.7465 29.6006 77.5391 29.7379 77.2891 29.8364C77.041 29.933 76.7579 29.9813 76.4397 29.9813Z" fill="#42404C"/>
<rect x="129.577" y="11.8932" width="65.297" height="19.9581" rx="2.84518" fill="#EFF1F3"/>
<path d="M138.798 18.6328H139.941L141.927 23.483H142L143.987 18.6328H145.129V24.8723H144.234V20.3572H144.176L142.336 24.8631H141.592L139.752 20.3541H139.694V24.8723H138.798V18.6328ZM148.396 24.9667C147.957 24.9667 147.574 24.8662 147.247 24.6651C146.92 24.464 146.667 24.1827 146.486 23.8212C146.305 23.4597 146.215 23.0372 146.215 22.5538C146.215 22.0684 146.305 21.6439 146.486 21.2803C146.667 20.9167 146.92 20.6344 147.247 20.4333C147.574 20.2323 147.957 20.1317 148.396 20.1317C148.835 20.1317 149.218 20.2323 149.545 20.4333C149.872 20.6344 150.126 20.9167 150.306 21.2803C150.487 21.6439 150.577 22.0684 150.577 22.5538C150.577 23.0372 150.487 23.4597 150.306 23.8212C150.126 24.1827 149.872 24.464 149.545 24.6651C149.218 24.8662 148.835 24.9667 148.396 24.9667ZM148.399 24.202C148.683 24.202 148.919 24.1269 149.106 23.9766C149.293 23.8263 149.431 23.6262 149.52 23.3764C149.612 23.1266 149.657 22.8514 149.657 22.5508C149.657 22.2522 149.612 21.978 149.52 21.7282C149.431 21.4763 149.293 21.2742 149.106 21.1219C148.919 20.9696 148.683 20.8934 148.399 20.8934C148.113 20.8934 147.875 20.9696 147.686 21.1219C147.499 21.2742 147.36 21.4763 147.269 21.7282C147.179 21.978 147.135 22.2522 147.135 22.5508C147.135 22.8514 147.179 23.1266 147.269 23.3764C147.36 23.6262 147.499 23.8263 147.686 23.9766C147.875 24.1269 148.113 24.202 148.399 24.202ZM152.505 22.0938V24.8723H151.594V20.1927H152.469V20.9543H152.527C152.634 20.7065 152.803 20.5075 153.032 20.3572C153.264 20.2069 153.555 20.1317 153.907 20.1317C154.226 20.1317 154.505 20.1988 154.744 20.3328C154.984 20.4648 155.17 20.6618 155.302 20.9239C155.434 21.1859 155.5 21.5098 155.5 21.8957V24.8723H154.589V22.0054C154.589 21.6662 154.501 21.4012 154.324 21.2102C154.147 21.0173 153.905 20.9208 153.596 20.9208C153.385 20.9208 153.197 20.9665 153.032 21.0579C152.87 21.1493 152.741 21.2834 152.645 21.4601C152.552 21.6347 152.505 21.846 152.505 22.0938ZM158.906 20.1927V20.9239H156.35V20.1927H158.906ZM157.036 19.0715H157.946V23.4983C157.946 23.675 157.973 23.808 158.026 23.8974C158.079 23.9847 158.147 24.0446 158.23 24.0771C158.315 24.1076 158.408 24.1228 158.507 24.1228C158.58 24.1228 158.644 24.1177 158.699 24.1076C158.754 24.0974 158.796 24.0893 158.827 24.0832L158.991 24.8357C158.939 24.856 158.864 24.8763 158.766 24.8967C158.669 24.919 158.547 24.9312 158.4 24.9332C158.161 24.9373 157.937 24.8946 157.73 24.8053C157.523 24.7159 157.355 24.5778 157.227 24.3909C157.1 24.2041 157.036 23.9695 157.036 23.6871V19.0715ZM160.925 22.0938V24.8723H160.014V18.6328H160.913V20.9543H160.971C161.081 20.7025 161.248 20.5024 161.474 20.3541C161.699 20.2059 161.994 20.1317 162.357 20.1317C162.678 20.1317 162.958 20.1977 163.198 20.3298C163.44 20.4618 163.627 20.6588 163.759 20.9208C163.893 21.1808 163.96 21.5058 163.96 21.8957V24.8723H163.049V22.0054C163.049 21.6622 162.96 21.3961 162.784 21.2072C162.607 21.0163 162.361 20.9208 162.046 20.9208C161.831 20.9208 161.638 20.9665 161.468 21.0579C161.299 21.1493 161.166 21.2834 161.069 21.4601C160.973 21.6347 160.925 21.846 160.925 22.0938ZM166.086 18.6328V24.8723H165.175V18.6328H166.086ZM167.888 26.6271C167.752 26.6271 167.628 26.616 167.516 26.5936C167.404 26.5733 167.321 26.551 167.266 26.5266L167.485 25.7802C167.652 25.8249 167.8 25.8442 167.93 25.8381C168.06 25.832 168.175 25.7832 168.275 25.6918C168.376 25.6004 168.465 25.4511 168.543 25.244L168.655 24.9332L166.943 20.1927H167.918L169.103 23.8242H169.152L170.337 20.1927H171.315L169.387 25.4968C169.297 25.7406 169.183 25.9467 169.045 26.1153C168.907 26.2859 168.743 26.4139 168.552 26.4992C168.361 26.5845 168.139 26.6271 167.888 26.6271Z" fill="#424252"/>
<path d="M179.226 20.2719C179.226 20.2719 182.071 23.4727 182.782 23.4727C183.494 23.4727 186.339 20.2719 186.339 20.2719" stroke="#82888F" stroke-width="1.06694" stroke-linecap="round"/>
<path d="M136.108 69.5349C137.589 67.8412 137.408 65.2507 135.592 63.9219C126.015 56.9119 114.37 53.1114 102.375 53.1485C89.0053 53.1898 76.1007 57.9954 66.0347 66.6814C55.9688 75.3674 49.4186 87.3495 47.5891 100.423C45.9446 112.176 48.2141 124.099 53.9947 134.42C55.079 136.355 57.5785 136.872 59.4441 135.671C61.3411 134.449 61.8577 131.92 60.7841 129.936C56.0946 121.268 54.2752 111.325 55.6469 101.522C57.2082 90.3651 62.798 80.1398 71.3881 72.7273C79.9783 65.3148 90.9909 61.2137 102.4 61.1785C112.469 61.1474 122.25 64.285 130.345 70.0813C132.142 71.3675 134.654 71.1982 136.108 69.5349Z" fill="#0063F8"/>
<path d="M111.795 124.278C111.795 128.992 107.974 132.813 103.26 132.813C98.5455 132.813 94.724 128.992 94.724 124.278C94.724 119.564 98.5455 115.742 103.26 115.742C107.974 115.742 111.795 119.564 111.795 124.278ZM98.0031 124.278C98.0031 127.181 100.356 129.534 103.26 129.534C106.163 129.534 108.516 127.181 108.516 124.278C108.516 121.375 106.163 119.021 103.26 119.021C100.356 119.021 98.0031 121.375 98.0031 124.278Z" fill="#0063F8"/>
<path d="M90.1671 67.9088L91.5293 71.8262" stroke="#D9D9D9" stroke-width="0.711295" stroke-linecap="square"/>
<path d="M103.615 66.3072V69.8637" stroke="#D9D9D9" stroke-width="0.711295" stroke-linecap="square"/>
<path d="M117.485 68.0856L115.707 71.2865" stroke="#D9D9D9" stroke-width="0.711295" stroke-linecap="square"/>
<path d="M129.222 74.1316L127.088 76.9768" stroke="#D9D9D9" stroke-width="0.711295" stroke-linecap="square"/>
<path d="M138.824 83.7343L135.623 86.2238" stroke="#D9D9D9" stroke-width="0.711295" stroke-linecap="square"/>
<path d="M145.226 95.4703L141.669 97.2486" stroke="#D9D9D9" stroke-width="0.711295" stroke-linecap="square"/>
<path d="M147.004 108.985H143.448" stroke="#D9D9D9" stroke-width="0.711295" stroke-linecap="square"/>
<path d="M144.515 122.144L141.314 121.077" stroke="#D9D9D9" stroke-width="0.711295" stroke-linecap="square"/>
<path d="M139.536 133.88C139.251 133.88 137.283 132.221 136.335 131.391" stroke="#D9D9D9" stroke-width="0.711295" stroke-linecap="square"/>
<path d="M67.6948 133.525L70.8957 131.746" stroke="#D9D9D9" stroke-width="0.711295" stroke-linecap="square"/>
<path d="M61.6487 122.144L65.5609 120.721" stroke="#D9D9D9" stroke-width="0.711295" stroke-linecap="square"/>
<path d="M60.2261 108.985H64.1382" stroke="#D9D9D9" stroke-width="0.711295" stroke-linecap="square"/>
<path d="M62.0044 95.826L66.2722 96.5373" stroke="#D9D9D9" stroke-width="0.711295" stroke-linecap="square"/>
<path d="M68.4061 83.7343L71.607 86.2238" stroke="#D9D9D9" stroke-width="0.711295" stroke-linecap="square"/>
<path d="M78.0084 74.1316L80.498 77.3324" stroke="#D9D9D9" stroke-width="0.711295" stroke-linecap="square"/>
<path d="M126.369 84.6275L113.11 117.755L104.261 112.635L126.369 84.6275Z" fill="url(#paint0_linear_0_1122)"/>
<path d="M44.219 160.686H45.8149L48.2473 164.919H48.3473L50.7798 160.686H52.3756L48.9975 166.342V169.997H47.5971V166.342L44.219 160.686ZM55.3844 170.138C54.7297 170.138 54.1583 169.988 53.6703 169.688C53.1823 169.388 52.8034 168.968 52.5336 168.429C52.2639 167.889 52.129 167.259 52.129 166.537C52.129 165.813 52.2639 165.179 52.5336 164.637C52.8034 164.094 53.1823 163.673 53.6703 163.373C54.1583 163.073 54.7297 162.923 55.3844 162.923C56.0391 162.923 56.6105 163.073 57.0985 163.373C57.5865 163.673 57.9653 164.094 58.2351 164.637C58.5049 165.179 58.6398 165.813 58.6398 166.537C58.6398 167.259 58.5049 167.889 58.2351 168.429C57.9653 168.968 57.5865 169.388 57.0985 169.688C56.6105 169.988 56.0391 170.138 55.3844 170.138ZM55.3889 168.997C55.8133 168.997 56.1649 168.885 56.4437 168.661C56.7226 168.436 56.9287 168.138 57.0621 167.765C57.1985 167.392 57.2667 166.981 57.2667 166.533C57.2667 166.087 57.1985 165.678 57.0621 165.305C56.9287 164.929 56.7226 164.628 56.4437 164.4C56.1649 164.173 55.8133 164.059 55.3889 164.059C54.9615 164.059 54.6069 164.173 54.325 164.4C54.0462 164.628 53.8385 164.929 53.7021 165.305C53.5688 165.678 53.5021 166.087 53.5021 166.533C53.5021 166.981 53.5688 167.392 53.7021 167.765C53.8385 168.138 54.0462 168.436 54.325 168.661C54.6069 168.885 54.9615 168.997 55.3889 168.997ZM64.5811 167.101V163.014H65.9451V169.997H64.6084V168.788H64.5356C64.375 169.161 64.1173 169.471 63.7627 169.72C63.4111 169.966 62.9731 170.088 62.4487 170.088C62.0001 170.088 61.603 169.99 61.2575 169.793C60.915 169.593 60.6452 169.297 60.4482 168.906C60.2542 168.515 60.1572 168.032 60.1572 167.456V163.014H61.5166V167.292C61.5166 167.768 61.6485 168.147 61.9122 168.429C62.1759 168.711 62.5184 168.852 62.9397 168.852C63.1943 168.852 63.4474 168.788 63.699 168.661C63.9536 168.533 64.1643 168.341 64.331 168.083C64.5007 167.826 64.5841 167.498 64.5811 167.101ZM67.7717 169.997V163.014H69.0856V164.123H69.1584C69.2857 163.747 69.51 163.452 69.8313 163.237C70.1556 163.018 70.5224 162.909 70.9316 162.909C71.0164 162.909 71.1165 162.912 71.2317 162.918C71.3499 162.924 71.4423 162.932 71.509 162.941V164.241C71.4544 164.226 71.3574 164.21 71.218 164.191C71.0786 164.17 70.9392 164.16 70.7997 164.16C70.4784 164.16 70.192 164.228 69.9404 164.364C69.6919 164.497 69.4948 164.684 69.3493 164.923C69.2039 165.16 69.1311 165.43 69.1311 165.733V169.997H67.7717ZM82.4846 163.628C82.3967 163.352 82.2784 163.105 82.1299 162.886C81.9844 162.665 81.8101 162.477 81.6071 162.323C81.404 162.165 81.1721 162.045 80.9114 161.963C80.6538 161.882 80.3704 161.841 80.0612 161.841C79.5368 161.841 79.064 161.976 78.6427 162.245C78.2213 162.515 77.8879 162.911 77.6424 163.432C77.3999 163.95 77.2787 164.585 77.2787 165.337C77.2787 166.092 77.4014 166.73 77.6469 167.251C77.8925 167.773 78.2289 168.168 78.6563 168.438C79.0837 168.708 79.5702 168.843 80.1158 168.843C80.622 168.843 81.063 168.739 81.4388 168.533C81.8177 168.327 82.1102 168.036 82.3163 167.66C82.5255 167.282 82.6301 166.836 82.6301 166.324L82.9938 166.392H80.3295V165.233H83.9895V166.292C83.9895 167.074 83.8228 167.753 83.4894 168.329C83.159 168.902 82.7013 169.344 82.1163 169.656C81.5343 169.969 80.8675 170.125 80.1158 170.125C79.2731 170.125 78.5335 169.931 77.897 169.543C77.2635 169.155 76.7694 168.605 76.4148 167.892C76.0602 167.177 75.8829 166.328 75.8829 165.346C75.8829 164.604 75.9859 163.937 76.192 163.346C76.3981 162.755 76.6876 162.253 77.0604 161.841C77.4363 161.425 77.8773 161.109 78.3835 160.89C78.8927 160.669 79.4489 160.559 80.0521 160.559C80.5553 160.559 81.0236 160.633 81.457 160.781C81.8935 160.93 82.2815 161.141 82.621 161.413C82.9635 161.686 83.2469 162.01 83.4712 162.386C83.6955 162.759 83.847 163.173 83.9258 163.628H82.4846ZM85.6638 169.997V163.014H86.9778V164.123H87.0505C87.1778 163.747 87.4021 163.452 87.7234 163.237C88.0477 163.018 88.4145 162.909 88.8237 162.909C88.9086 162.909 89.0086 162.912 89.1238 162.918C89.242 162.924 89.3344 162.932 89.4011 162.941V164.241C89.3466 164.226 89.2496 164.21 89.1101 164.191C88.9707 164.17 88.8313 164.16 88.6918 164.16C88.3705 164.16 88.0841 164.228 87.8325 164.364C87.584 164.497 87.387 164.684 87.2415 164.923C87.096 165.16 87.0232 165.43 87.0232 165.733V169.997H85.6638ZM92.5474 170.152C92.1048 170.152 91.7047 170.07 91.3471 169.906C90.9894 169.74 90.706 169.499 90.4969 169.184C90.2907 168.868 90.1877 168.482 90.1877 168.024C90.1877 167.63 90.2635 167.306 90.415 167.051C90.5666 166.797 90.7712 166.595 91.0288 166.446C91.2865 166.298 91.5744 166.186 91.8927 166.11C92.2109 166.034 92.5353 165.977 92.8656 165.937C93.2839 165.889 93.6234 165.849 93.8841 165.819C94.1448 165.786 94.3342 165.733 94.4524 165.66C94.5706 165.587 94.6297 165.469 94.6297 165.305V165.273C94.6297 164.876 94.5176 164.569 94.2933 164.35C94.072 164.132 93.7416 164.023 93.3021 164.023C92.8444 164.023 92.4837 164.125 92.22 164.328C91.9594 164.528 91.779 164.751 91.679 164.996L90.4014 164.705C90.5529 164.281 90.7742 163.938 91.0652 163.678C91.3592 163.414 91.6972 163.223 92.0791 163.105C92.461 162.983 92.8626 162.923 93.2839 162.923C93.5628 162.923 93.8583 162.956 94.1705 163.023C94.4858 163.086 94.7798 163.205 95.0526 163.377C95.3284 163.55 95.5542 163.797 95.73 164.119C95.9058 164.437 95.9937 164.851 95.9937 165.36V169.997H94.6661V169.043H94.6116C94.5237 169.218 94.3918 169.391 94.216 169.561C94.0402 169.731 93.8144 169.872 93.5386 169.984C93.2627 170.096 92.9323 170.152 92.5474 170.152ZM92.8429 169.061C93.2188 169.061 93.5401 168.987 93.8068 168.838C94.0766 168.689 94.2812 168.495 94.4206 168.256C94.5631 168.014 94.6343 167.754 94.6343 167.479V166.578C94.5858 166.627 94.4918 166.672 94.3524 166.715C94.216 166.754 94.0599 166.789 93.8841 166.819C93.7083 166.847 93.537 166.872 93.3703 166.897C93.2036 166.918 93.0642 166.936 92.952 166.951C92.6883 166.984 92.4474 167.041 92.2291 167.119C92.0139 167.198 91.8411 167.312 91.7108 167.46C91.5835 167.606 91.5198 167.8 91.5198 168.042C91.5198 168.379 91.6441 168.633 91.8927 168.806C92.1412 168.976 92.458 169.061 92.8429 169.061ZM100.419 170.134C99.855 170.134 99.3518 169.99 98.9093 169.702C98.4697 169.411 98.1242 168.997 97.8726 168.461C97.6241 167.921 97.4998 167.274 97.4998 166.519C97.4998 165.764 97.6256 165.119 97.8772 164.582C98.1318 164.046 98.4804 163.635 98.9229 163.35C99.3654 163.065 99.8671 162.923 100.428 162.923C100.861 162.923 101.21 162.996 101.474 163.141C101.74 163.284 101.946 163.45 102.092 163.641C102.24 163.832 102.356 164 102.437 164.146H102.519V160.686H103.879V169.997H102.551V168.911H102.437C102.356 169.059 102.237 169.229 102.083 169.42C101.931 169.611 101.722 169.778 101.455 169.92C101.189 170.063 100.843 170.134 100.419 170.134ZM100.719 168.974C101.11 168.974 101.44 168.871 101.71 168.665C101.983 168.456 102.189 168.167 102.328 167.797C102.471 167.427 102.542 166.997 102.542 166.506C102.542 166.021 102.472 165.596 102.333 165.233C102.193 164.869 101.989 164.585 101.719 164.382C101.449 164.179 101.116 164.078 100.719 164.078C100.31 164.078 99.9686 164.184 99.6958 164.396C99.423 164.608 99.2169 164.898 99.0775 165.264C98.9411 165.631 98.8729 166.045 98.8729 166.506C98.8729 166.972 98.9426 167.392 99.082 167.765C99.2215 168.138 99.4276 168.433 99.7004 168.652C99.9762 168.867 100.316 168.974 100.719 168.974ZM108.829 170.138C108.141 170.138 107.548 169.991 107.051 169.697C106.557 169.4 106.175 168.983 105.905 168.447C105.639 167.907 105.505 167.275 105.505 166.551C105.505 165.836 105.639 165.205 105.905 164.66C106.175 164.114 106.551 163.688 107.033 163.382C107.518 163.076 108.085 162.923 108.733 162.923C109.127 162.923 109.509 162.988 109.879 163.118C110.249 163.249 110.581 163.453 110.875 163.732C111.169 164.011 111.401 164.373 111.57 164.819C111.74 165.261 111.825 165.799 111.825 166.433V166.915H106.274V165.896H110.493C110.493 165.539 110.42 165.222 110.275 164.946C110.129 164.667 109.925 164.447 109.661 164.287C109.4 164.126 109.094 164.046 108.742 164.046C108.361 164.046 108.027 164.14 107.742 164.328C107.46 164.513 107.242 164.755 107.088 165.055C106.936 165.352 106.86 165.675 106.86 166.024V166.819C106.86 167.286 106.942 167.683 107.106 168.01C107.272 168.338 107.504 168.588 107.801 168.761C108.098 168.93 108.445 169.015 108.843 169.015C109.1 169.015 109.335 168.979 109.547 168.906C109.759 168.83 109.943 168.718 110.097 168.57C110.252 168.421 110.37 168.238 110.452 168.02L111.739 168.251C111.636 168.63 111.451 168.962 111.184 169.247C110.92 169.529 110.588 169.749 110.188 169.906C109.791 170.061 109.338 170.138 108.829 170.138ZM114.229 170.084C113.981 170.084 113.767 169.996 113.588 169.82C113.409 169.641 113.32 169.426 113.32 169.174C113.32 168.926 113.409 168.714 113.588 168.538C113.767 168.359 113.981 168.27 114.229 168.27C114.478 168.27 114.691 168.359 114.87 168.538C115.049 168.714 115.138 168.926 115.138 169.174C115.138 169.341 115.096 169.494 115.011 169.634C114.929 169.77 114.82 169.879 114.684 169.961C114.547 170.043 114.396 170.084 114.229 170.084ZM114.229 165.001C113.981 165.001 113.767 164.911 113.588 164.732C113.409 164.554 113.32 164.34 113.32 164.091C113.32 163.843 113.409 163.631 113.588 163.455C113.767 163.276 113.981 163.187 114.229 163.187C114.478 163.187 114.691 163.276 114.87 163.455C115.049 163.631 115.138 163.843 115.138 164.091C115.138 164.258 115.096 164.411 115.011 164.551C114.929 164.687 114.82 164.796 114.684 164.878C114.547 164.96 114.396 165.001 114.229 165.001Z" fill="#83868E"/>
<path d="M125.88 171.139C125.102 171.139 124.41 171.013 123.804 170.76C123.201 170.504 122.728 170.155 122.384 169.714C122.041 169.273 121.869 168.773 121.869 168.214C121.869 167.783 121.967 167.387 122.162 167.027C122.361 166.663 122.63 166.361 122.97 166.122C123.311 165.88 123.691 165.725 124.112 165.658V165.587C123.56 165.476 123.112 165.208 122.768 164.784C122.425 164.356 122.253 163.859 122.253 163.293C122.253 162.758 122.41 162.281 122.723 161.864C123.036 161.443 123.466 161.113 124.011 160.874C124.56 160.631 125.183 160.51 125.88 160.51C126.577 160.51 127.199 160.631 127.744 160.874C128.293 161.116 128.724 161.448 129.038 161.869C129.351 162.286 129.509 162.761 129.513 163.293C129.509 163.863 129.334 164.359 128.987 164.784C128.64 165.208 128.196 165.476 127.653 165.587V165.658C128.068 165.725 128.443 165.88 128.78 166.122C129.12 166.361 129.39 166.663 129.588 167.027C129.79 167.387 129.893 167.783 129.897 168.214C129.893 168.773 129.72 169.273 129.376 169.714C129.033 170.155 128.558 170.504 127.952 170.76C127.349 171.013 126.658 171.139 125.88 171.139ZM125.88 169.532C126.227 169.532 126.53 169.47 126.79 169.345C127.049 169.217 127.251 169.042 127.396 168.82C127.544 168.594 127.618 168.335 127.618 168.042C127.618 167.742 127.542 167.478 127.391 167.249C127.239 167.017 127.034 166.835 126.774 166.703C126.515 166.569 126.217 166.501 125.88 166.501C125.547 166.501 125.249 166.569 124.986 166.703C124.723 166.835 124.516 167.017 124.365 167.249C124.217 167.478 124.142 167.742 124.142 168.042C124.142 168.335 124.215 168.594 124.36 168.82C124.505 169.042 124.708 169.217 124.971 169.345C125.234 169.47 125.537 169.532 125.88 169.532ZM125.88 164.91C126.17 164.91 126.428 164.851 126.653 164.733C126.879 164.615 127.056 164.452 127.184 164.243C127.312 164.034 127.376 163.793 127.376 163.521C127.376 163.251 127.312 163.016 127.184 162.813C127.056 162.608 126.881 162.448 126.658 162.334C126.436 162.216 126.177 162.157 125.88 162.157C125.587 162.157 125.328 162.216 125.102 162.334C124.877 162.448 124.7 162.608 124.572 162.813C124.447 163.016 124.385 163.251 124.385 163.521C124.385 163.793 124.449 164.034 124.577 164.243C124.705 164.452 124.882 164.615 125.107 164.733C125.333 164.851 125.591 164.91 125.88 164.91ZM132.412 171.129C132.079 171.129 131.793 171.011 131.553 170.775C131.318 170.536 131.2 170.25 131.2 169.916C131.2 169.586 131.318 169.303 131.553 169.068C131.793 168.832 132.079 168.714 132.412 168.714C132.736 168.714 133.019 168.832 133.261 169.068C133.503 169.303 133.625 169.586 133.625 169.916C133.625 170.139 133.567 170.342 133.453 170.528C133.342 170.709 133.195 170.856 133.013 170.967C132.832 171.075 132.631 171.129 132.412 171.129ZM138.92 160.51C139.452 160.51 139.964 160.599 140.456 160.778C140.951 160.956 141.392 161.241 141.78 161.631C142.17 162.022 142.478 162.541 142.704 163.187C142.933 163.831 143.049 164.62 143.053 165.557C143.053 166.436 142.953 167.22 142.755 167.911C142.559 168.598 142.278 169.182 141.911 169.664C141.544 170.145 141.101 170.512 140.582 170.765C140.064 171.014 139.484 171.139 138.845 171.139C138.154 171.139 137.545 171.006 137.016 170.74C136.487 170.47 136.061 170.105 135.738 169.643C135.418 169.179 135.224 168.657 135.157 168.077H137.314C137.398 168.455 137.575 168.748 137.844 168.956C138.114 169.162 138.447 169.265 138.845 169.265C139.518 169.265 140.03 168.972 140.38 168.386C140.731 167.796 140.907 166.99 140.911 165.966H140.84C140.685 166.269 140.476 166.53 140.214 166.749C139.951 166.964 139.649 167.131 139.309 167.249C138.973 167.367 138.614 167.426 138.233 167.426C137.624 167.426 137.08 167.283 136.602 166.996C136.123 166.71 135.746 166.316 135.47 165.814C135.194 165.312 135.056 164.74 135.056 164.097C135.052 163.403 135.212 162.785 135.536 162.243C135.859 161.7 136.31 161.276 136.889 160.97C137.472 160.66 138.149 160.506 138.92 160.51ZM138.935 162.227C138.595 162.227 138.292 162.308 138.026 162.47C137.763 162.632 137.555 162.849 137.4 163.122C137.248 163.394 137.174 163.699 137.177 164.036C137.177 164.376 137.252 164.683 137.4 164.955C137.551 165.225 137.757 165.44 138.016 165.602C138.279 165.76 138.578 165.839 138.915 165.839C139.168 165.839 139.402 165.792 139.617 165.698C139.833 165.604 140.02 165.474 140.178 165.309C140.34 165.141 140.466 164.947 140.557 164.728C140.648 164.509 140.693 164.277 140.693 164.031C140.69 163.704 140.613 163.405 140.461 163.132C140.31 162.859 140.101 162.64 139.835 162.475C139.569 162.31 139.269 162.227 138.935 162.227ZM148.539 171.139C148.007 171.135 147.493 171.046 146.998 170.871C146.506 170.696 146.065 170.411 145.675 170.017C145.284 169.623 144.974 169.101 144.745 168.451C144.519 167.801 144.407 167.003 144.407 166.057C144.41 165.188 144.509 164.411 144.705 163.728C144.903 163.041 145.186 162.458 145.553 161.98C145.924 161.502 146.367 161.138 146.882 160.889C147.397 160.636 147.975 160.51 148.615 160.51C149.305 160.51 149.915 160.645 150.443 160.914C150.972 161.18 151.397 161.542 151.717 162C152.04 162.458 152.235 162.972 152.303 163.541H150.145C150.061 163.181 149.884 162.898 149.615 162.692C149.346 162.487 149.012 162.384 148.615 162.384C147.941 162.384 147.429 162.677 147.079 163.263C146.732 163.849 146.555 164.646 146.549 165.653H146.619C146.774 165.346 146.983 165.085 147.246 164.87C147.512 164.651 147.813 164.484 148.15 164.369C148.49 164.252 148.849 164.193 149.226 164.193C149.839 164.193 150.385 164.337 150.863 164.627C151.341 164.913 151.718 165.307 151.994 165.809C152.271 166.311 152.409 166.885 152.409 167.532C152.409 168.232 152.245 168.855 151.919 169.401C151.595 169.947 151.142 170.374 150.56 170.684C149.98 170.991 149.307 171.142 148.539 171.139ZM148.529 169.421C148.866 169.421 149.167 169.34 149.433 169.179C149.699 169.017 149.908 168.798 150.06 168.522C150.211 168.246 150.287 167.936 150.287 167.592C150.287 167.249 150.211 166.941 150.06 166.668C149.911 166.395 149.706 166.178 149.443 166.016C149.181 165.855 148.881 165.774 148.544 165.774C148.291 165.774 148.057 165.821 147.842 165.915C147.63 166.01 147.443 166.141 147.281 166.309C147.123 166.478 146.998 166.673 146.907 166.895C146.816 167.114 146.771 167.348 146.771 167.598C146.771 167.931 146.847 168.236 146.998 168.512C147.153 168.788 147.362 169.009 147.625 169.174C147.891 169.339 148.192 169.421 148.529 169.421ZM157.93 171.139C157.398 171.135 156.885 171.046 156.389 170.871C155.898 170.696 155.457 170.411 155.066 170.017C154.675 169.623 154.365 169.101 154.136 168.451C153.911 167.801 153.798 167.003 153.798 166.057C153.801 165.188 153.901 164.411 154.096 163.728C154.295 163.041 154.578 162.458 154.945 161.98C155.315 161.502 155.758 161.138 156.273 160.889C156.789 160.636 157.366 160.51 158.006 160.51C158.696 160.51 159.306 160.645 159.835 160.914C160.364 161.18 160.788 161.542 161.108 162C161.431 162.458 161.627 162.972 161.694 163.541H159.537C159.453 163.181 159.276 162.898 159.006 162.692C158.737 162.487 158.403 162.384 158.006 162.384C157.332 162.384 156.821 162.677 156.47 163.263C156.123 163.849 155.947 164.646 155.94 165.653H156.011C156.165 165.346 156.374 165.085 156.637 164.87C156.903 164.651 157.204 164.484 157.541 164.369C157.881 164.252 158.24 164.193 158.617 164.193C159.23 164.193 159.776 164.337 160.254 164.627C160.732 164.913 161.11 165.307 161.386 165.809C161.662 166.311 161.8 166.885 161.8 167.532C161.8 168.232 161.637 168.855 161.31 169.401C160.987 169.947 160.534 170.374 159.951 170.684C159.372 170.991 158.698 171.142 157.93 171.139ZM157.92 169.421C158.257 169.421 158.558 169.34 158.824 169.179C159.09 169.017 159.299 168.798 159.451 168.522C159.602 168.246 159.678 167.936 159.678 167.592C159.678 167.249 159.602 166.941 159.451 166.668C159.303 166.395 159.097 166.178 158.835 166.016C158.572 165.855 158.272 165.774 157.935 165.774C157.683 165.774 157.449 165.821 157.233 165.915C157.021 166.01 156.834 166.141 156.672 166.309C156.514 166.478 156.389 166.673 156.299 166.895C156.208 167.114 156.162 167.348 156.162 167.598C156.162 167.931 156.238 168.236 156.389 168.512C156.544 168.788 156.753 169.009 157.016 169.174C157.282 169.339 157.583 169.421 157.92 169.421Z" fill="black"/>
<defs>
<linearGradient id="paint0_linear_0_1122" x1="126.369" y1="84.6275" x2="108.685" y2="115.195" gradientUnits="userSpaceOnUse">
<stop stop-color="#0063F8"/>
<stop offset="1" stop-color="#0063F8" stop-opacity="0"/>
</linearGradient>
</defs>
</svg>
