<svg width="22" height="28" viewBox="0 0 22 28" fill="none" xmlns="http://www.w3.org/2000/svg">
<path d="M4.24401 0.246338H13.3244C13.7793 0.246435 14.2156 0.427243 14.5373 0.748991L20.8968 7.1085C21.2185 7.43015 21.3993 7.86644 21.3994 8.32139V24.2639C21.3994 25.1739 21.0379 26.0466 20.3945 26.6901C19.751 27.3335 18.8783 27.695 17.9683 27.695H4.24401C3.33403 27.695 2.46132 27.3335 1.81787 26.6901C1.17442 26.0466 0.812927 25.1739 0.812927 24.2639V3.67742C0.812927 2.76744 1.17442 1.89473 1.81787 1.25128C2.46132 0.607826 3.33403 0.246338 4.24401 0.246338V0.246338ZM13.6795 2.81965V6.25073C13.6795 6.70572 13.8602 7.14208 14.182 7.4638C14.5037 7.78553 14.94 7.96627 15.395 7.96627H18.8261L13.6795 2.81965Z" fill="#27AE60"/>
<path d="M5.17577 17.3301C5.02137 17.3301 4.89442 17.2854 4.79492 17.1962C4.69885 17.1036 4.65081 16.9904 4.65081 16.8566C4.65081 16.7193 4.69885 16.6044 4.79492 16.5117C4.89442 16.4191 5.02137 16.3728 5.17577 16.3728C5.32673 16.3728 5.45025 16.4191 5.54632 16.5117C5.64583 16.6044 5.69558 16.7193 5.69558 16.8566C5.69558 16.9904 5.64583 17.1036 5.54632 17.1962C5.45025 17.2854 5.32673 17.3301 5.17577 17.3301ZM7.35395 14.8236C7.43973 14.6898 7.5581 14.5818 7.70907 14.4994C7.86004 14.4171 8.03674 14.3759 8.23917 14.3759C8.47592 14.3759 8.69036 14.4359 8.8825 14.556C9.07464 14.6761 9.22561 14.8477 9.3354 15.0707C9.44863 15.2937 9.50524 15.5528 9.50524 15.8478C9.50524 16.1429 9.44863 16.4037 9.3354 16.6301C9.22561 16.8531 9.07464 17.0264 8.8825 17.1499C8.69036 17.27 8.47592 17.3301 8.23917 17.3301C8.04017 17.3301 7.86347 17.2889 7.70907 17.2065C7.5581 17.1242 7.43973 17.0178 7.35395 16.8874V18.6579H6.47388V14.4171H7.35395V14.8236ZM8.60973 15.8478C8.60973 15.6282 8.54797 15.4567 8.42445 15.3332C8.30436 15.2062 8.15511 15.1427 7.9767 15.1427C7.80171 15.1427 7.65246 15.2062 7.52894 15.3332C7.40885 15.4601 7.34881 15.6334 7.34881 15.853C7.34881 16.0726 7.40885 16.2458 7.52894 16.3728C7.65246 16.4997 7.80171 16.5632 7.9767 16.5632C8.15168 16.5632 8.30093 16.4997 8.42445 16.3728C8.54797 16.2424 8.60973 16.0674 8.60973 15.8478ZM11.9741 14.3862C12.3104 14.3862 12.578 14.496 12.777 14.7156C12.9794 14.9317 13.0807 15.2302 13.0807 15.6111V17.2889H12.2057V15.7295C12.2057 15.5373 12.156 15.3881 12.0565 15.2817C11.957 15.1753 11.8232 15.1222 11.655 15.1222C11.4869 15.1222 11.3531 15.1753 11.2536 15.2817C11.1541 15.3881 11.1044 15.5373 11.1044 15.7295V17.2889H10.2243V14.4171H11.1044V14.7979C11.1936 14.671 11.3137 14.5715 11.4646 14.4994C11.6156 14.4239 11.7854 14.3862 11.9741 14.3862ZM15.0406 14.3759C15.2431 14.3759 15.4198 14.4171 15.5707 14.4994C15.7251 14.5818 15.8435 14.6898 15.9259 14.8236V14.4171H16.8059V17.2837C16.8059 17.5479 16.7527 17.7864 16.6464 17.9991C16.5435 18.2153 16.3839 18.3868 16.1677 18.5138C15.955 18.6407 15.6891 18.7042 15.37 18.7042C14.9446 18.7042 14.5997 18.603 14.3356 18.4006C14.0714 18.2015 13.9204 17.9305 13.8826 17.5874H14.7524C14.7799 17.6972 14.8451 17.783 14.948 17.8447C15.0509 17.9099 15.1779 17.9425 15.3288 17.9425C15.5107 17.9425 15.6548 17.8893 15.7612 17.783C15.871 17.68 15.9259 17.5136 15.9259 17.2837V16.8771C15.8401 17.011 15.7217 17.1208 15.5707 17.2065C15.4198 17.2889 15.2431 17.3301 15.0406 17.3301C14.8039 17.3301 14.5895 17.27 14.3973 17.1499C14.2052 17.0264 14.0525 16.8531 13.9393 16.6301C13.8295 16.4037 13.7746 16.1429 13.7746 15.8478C13.7746 15.5528 13.8295 15.2937 13.9393 15.0707C14.0525 14.8477 14.2052 14.6761 14.3973 14.556C14.5895 14.4359 14.8039 14.3759 15.0406 14.3759ZM15.9259 15.853C15.9259 15.6334 15.8641 15.4601 15.7406 15.3332C15.6205 15.2062 15.473 15.1427 15.298 15.1427C15.123 15.1427 14.9737 15.2062 14.8502 15.3332C14.7301 15.4567 14.6701 15.6282 14.6701 15.8478C14.6701 16.0674 14.7301 16.2424 14.8502 16.3728C14.9737 16.4997 15.123 16.5632 15.298 16.5632C15.473 16.5632 15.6205 16.4997 15.7406 16.3728C15.8641 16.2458 15.9259 16.0726 15.9259 15.853Z" fill="white"/>
</svg>
