<svg width="50" height="42" viewBox="0 0 50 42" fill="none" xmlns="http://www.w3.org/2000/svg">
<rect x="0.191223" y="0.122803" width="49.8048" height="41.1756" rx="4.98149" fill="#1C1D1D" fill-opacity="0.05"/>
<path d="M25.9355 31.2525C23.8593 31.2525 21.9718 30.9973 20.2731 30.487C18.5744 29.9767 17.1064 29.2497 15.869 28.306C14.6387 27.3692 13.6914 26.2507 13.0273 24.9505C12.3632 23.6432 12.0312 22.1927 12.0312 20.5988C12.0312 18.963 12.3807 17.474 13.0798 16.1318C13.7858 14.7826 14.7855 13.6222 16.0787 12.6505C17.379 11.6788 18.9274 10.9308 20.724 10.4065C22.5276 9.87525 24.5234 9.6096 26.7114 9.6096C28.4032 9.6096 29.9411 9.78437 31.3252 10.1339C32.7094 10.4764 33.8978 10.9693 34.8904 11.6124C35.8901 12.2555 36.6591 13.0245 37.1973 13.9193C37.7426 14.8141 38.0152 15.8103 38.0152 16.9078C38.0152 17.6488 37.8684 18.2849 37.5748 18.8162C37.2812 19.3405 36.9002 19.7914 36.4319 20.1689C35.9705 20.5464 35.4811 20.8715 34.9638 21.1441C34.4465 21.4097 33.9537 21.6544 33.4853 21.8781C33.0239 22.1018 32.6465 22.329 32.3528 22.5597C32.0592 22.7834 31.9124 23.0385 31.9124 23.3252C31.9124 23.6327 31.9998 23.9089 32.1746 24.1535C32.3563 24.3912 32.5591 24.6394 32.7828 24.898C33.0135 25.1567 33.2162 25.4643 33.391 25.8208C33.5727 26.1703 33.6636 26.6142 33.6636 27.1525C33.6636 27.9634 33.3385 28.6765 32.6884 29.2916C32.0453 29.9068 31.1435 30.3857 29.983 30.7282C28.8296 31.0777 27.4804 31.2525 25.9355 31.2525ZM25.9355 29.04C27.5992 29.04 28.931 28.8407 29.9306 28.4423C30.9373 28.0438 31.4406 27.5125 31.4406 26.8484C31.4406 26.5269 31.3497 26.2437 31.1679 25.9991C30.9932 25.7474 30.7905 25.4957 30.5598 25.2441C30.3291 24.9924 30.1228 24.7093 29.9411 24.3947C29.7663 24.0801 29.6789 23.6957 29.6789 23.2413C29.6789 22.71 29.8257 22.2661 30.1194 21.9096C30.413 21.553 30.7939 21.242 31.2623 20.9763C31.7307 20.7107 32.2235 20.459 32.7408 20.2213C33.2651 19.9767 33.758 19.711 34.2193 19.4244C34.6877 19.1378 35.0687 18.7952 35.3623 18.3968C35.6559 17.9913 35.8027 17.495 35.8027 16.9078C35.8027 15.8942 35.4252 15.0063 34.6702 14.2444C33.9222 13.4754 32.8667 12.8777 31.5035 12.4513C30.1403 12.0249 28.543 11.8116 26.7114 11.8116C24.831 11.8116 23.1253 12.0214 21.5943 12.4408C20.0634 12.8532 18.7491 13.4474 17.6516 14.2234C16.5541 14.9994 15.7082 15.9256 15.114 17.0022C14.5268 18.0787 14.2332 19.2776 14.2332 20.5988C14.2332 21.8641 14.5093 23.0141 15.0616 24.0487C15.6209 25.0833 16.4143 25.9746 17.4419 26.7226C18.4695 27.4636 19.6999 28.0333 21.1329 28.4318C22.573 28.8372 24.1738 29.04 25.9355 29.04ZM25.0337 26.6387C24.4954 26.6387 24.0026 26.5059 23.5552 26.2402C23.1078 25.9746 22.7478 25.6181 22.4751 25.1707C22.2095 24.7163 22.0767 24.2165 22.0767 23.6712C22.0767 23.1329 22.2095 22.6401 22.4751 22.1927C22.7478 21.7453 23.1078 21.3888 23.5552 21.1231C24.0026 20.8505 24.4954 20.7142 25.0337 20.7142C25.579 20.7142 26.0753 20.8505 26.5227 21.1231C26.9701 21.3888 27.3266 21.7453 27.5923 22.1927C27.8649 22.6401 28.0012 23.1329 28.0012 23.6712C28.0012 24.2304 27.8684 24.7338 27.6027 25.1812C27.3441 25.6286 26.9876 25.9851 26.5332 26.2507C26.0858 26.5094 25.586 26.6387 25.0337 26.6387ZM25.0337 25.265C25.3343 25.265 25.6034 25.1951 25.8411 25.0553C26.0858 24.9155 26.278 24.7233 26.4178 24.4786C26.5576 24.2339 26.6275 23.9648 26.6275 23.6712C26.6275 23.3287 26.5507 23.042 26.3969 22.8113C26.2431 22.5807 26.0438 22.4024 25.7992 22.2766C25.5545 22.1507 25.2923 22.0913 25.0127 22.0983C24.7401 22.0983 24.4849 22.1647 24.2473 22.2975C24.0096 22.4234 23.8173 22.6016 23.6705 22.8323C23.5237 23.063 23.4503 23.3426 23.4503 23.6712C23.4503 23.9648 23.5202 24.2339 23.66 24.4786C23.8068 24.7233 23.9991 24.9155 24.2368 25.0553C24.4744 25.1951 24.7401 25.265 25.0337 25.265ZM17.746 22.0144C17.2776 22.0144 16.8722 21.8432 16.5296 21.5006C16.1871 21.1511 16.0158 20.7386 16.0158 20.2633C16.0158 19.7809 16.1871 19.372 16.5296 19.0364C16.8722 18.6939 17.2776 18.5226 17.746 18.5226C18.2283 18.5226 18.6373 18.6939 18.9728 19.0364C19.3084 19.372 19.4762 19.7809 19.4762 20.2633C19.4762 20.7386 19.3084 21.1511 18.9728 21.5006C18.6373 21.8432 18.2283 22.0144 17.746 22.0144ZM21.5209 18.6904C20.9127 18.6904 20.3954 18.4807 19.969 18.0612C19.5496 17.6418 19.3399 17.1245 19.3399 16.5093C19.3399 15.9151 19.5496 15.4118 19.969 14.9994C20.3954 14.5799 20.9127 14.3702 21.5209 14.3702C22.1221 14.3702 22.6324 14.5799 23.0519 14.9994C23.4783 15.4118 23.6915 15.9151 23.6915 16.5093C23.6915 17.1245 23.4783 17.6418 23.0519 18.0612C22.6324 18.4807 22.1221 18.6904 21.5209 18.6904ZM26.7639 17.0231C26.2815 17.0231 25.8656 16.8519 25.516 16.5093C25.1735 16.1668 25.0022 15.7543 25.0022 15.272C25.0022 14.7896 25.1735 14.3772 25.516 14.0347C25.8656 13.6921 26.2815 13.5208 26.7639 13.5208C27.2462 13.5208 27.6552 13.6921 27.9907 14.0347C28.3333 14.3702 28.5045 14.7826 28.5045 15.272C28.5045 15.7543 28.3333 16.1668 27.9907 16.5093C27.6552 16.8519 27.2462 17.0231 26.7639 17.0231ZM31.472 17.6837C31.0806 17.6837 30.7415 17.5474 30.4549 17.2748C30.1753 16.9952 30.0355 16.6561 30.0355 16.2577C30.0355 15.8732 30.1753 15.5411 30.4549 15.2615C30.7415 14.9819 31.0806 14.8421 31.472 14.8421C31.8635 14.8421 32.1956 14.9819 32.4682 15.2615C32.7478 15.5411 32.8876 15.8732 32.8876 16.2577C32.8876 16.6561 32.7478 16.9952 32.4682 17.2748C32.1956 17.5474 31.8635 17.6837 31.472 17.6837Z" fill="black"/>
</svg>
